<?xml version="1.0" encoding="UTF-8" standalone="no"?>
<svg
   viewBox="0 0 840.00006 400"
   height="400"
   width="840.00006"
   xml:space="preserve"
   id="svg2"
   version="1.1"
   xmlns="http://www.w3.org/2000/svg"
   xmlns:svg="http://www.w3.org/2000/svg"
   xmlns:rdf="http://www.w3.org/1999/02/22-rdf-syntax-ns#"
   xmlns:cc="http://creativecommons.org/ns#"
   xmlns:dc="http://purl.org/dc/elements/1.1/"><metadata
     id="metadata8"><rdf:RDF><cc:Work
         rdf:about=""><dc:format>image/svg+xml</dc:format><dc:type
           rdf:resource="http://purl.org/dc/dcmitype/StillImage" /></cc:Work></rdf:RDF></metadata><defs
     id="defs6" /><g
     transform="matrix(0.60750942,0,0,-0.63788586,600.00005,420)"
     id="g10"
     style="stroke-width:2.14186"><g
       transform="matrix(0.08395498,0,0,0.08117539,-158.46693,123.94595)"
       id="g12"
       style="stroke-width:2.59452"><g
         id="g2601"
         style="stroke-width:2.59452"><g
           id="g2522"
           style="fill:#c74c59;fill-opacity:1;stroke-width:2.59452"
           transform="scale(10)"><path
             id="path2029"
             style="fill:#c74c59;fill-opacity:1;fill-rule:evenodd;stroke:none;stroke-width:0.259452"
             d="M -987.63907,-47.297477 V 199.23852 H 658.42601 V -79.200478 l -100.76658,23.691001 c -164.3651,38.648 -344.37522,45.6849998 -524.342835,20.506 -65.37004,-9.146 -133.827595,-6.162 -194.532635,8.708 l -28.71251,7.032 c -72.54506,17.7720048 -156.98261,18.54700485 -231.49516,2.128 l -73.97505,-16.301 c -57.52253,-12.675 -121.55757,-15.041 -180.35511,-7.428 -105.69756,13.68 -207.73764,11.692 -309.6077,-6.036 l -2.2775,-0.397" /></g><path
           id="path14"
           style="fill:#000000;fill-opacity:1;fill-rule:evenodd;stroke:none;stroke-width:2.59451"
           d="M -9876.3901,2.0611054e-5 H 6584.2601 V 6584.25 H -9876.3901 V 2.0611054e-5" /></g><path
         id="path18"
         style="fill:#a13f48;fill-opacity:1;fill-rule:evenodd;stroke:none;stroke-width:2.59452"
         d="M 6593.0866,2465.36 V 0 h -16469.477 v 2784.39 l 1008.2061,-236.91 c 1644.5323,-386.48 3445.5987,-456.85 5246.2399,-205.06 654.0509,91.46 1338.9935,61.62 1946.3694,-87.08 l 287.2791,-70.32 C -662.45643,2007.3 182.37189,1999.55 927.8969,2163.74 l 740.1472,163.01 c 575.5337,126.75 1216.2275,150.41 1804.5182,74.28 1057.5423,-136.8 2078.4902,-116.92 3097.7371,60.36 l 22.7872,3.97" /><path
         id="path20"
         style="fill:#c74c59;fill-opacity:1;fill-rule:evenodd;stroke:none;stroke-width:2.59452"
         d="M 6584.2601,1233.6252 V -33.244763 H -9876.39 V 1233.6252 c 2380.0116,86.31 5202.8183,136.32 8230.3201,136.32 3027.5018,0 5850.3535,-50.01 8230.33,-136.32" /><path
         id="path22"
         style="fill:#933a40;fill-opacity:1;fill-rule:evenodd;stroke:none;stroke-width:2.59452"
         d="m 3507.13,598.441 c 724.03,0 1314.54,48.489 1314.54,107.938 0,59.453 -590.51,107.93 -1314.54,107.93 -724.01,0 -1314.53,-48.477 -1314.53,-107.93 0,-59.449 590.52,-107.938 1314.53,-107.938" /><path
         id="path24"
         style="fill:#b2a29e;fill-opacity:1;fill-rule:evenodd;stroke:none;stroke-width:2.59452"
         d="M 3620.61,722.809 H 4091.3 V 2903.37 H 3620.61 V 722.809" /><path
         id="path26"
         style="fill:#d7c9c4;fill-opacity:1;fill-rule:evenodd;stroke:none;stroke-width:2.59452"
         d="m 3584.86,1494.2 h 542.19 v 290.5 h -542.19 v -290.5" /><path
         id="path28"
         style="fill:#b2a29e;fill-opacity:1;fill-rule:evenodd;stroke:none;stroke-width:2.59452"
         d="m 3861.61,722.809 h 364.93 v 174.48 c 0,95.961 -78.51,174.461 -174.47,174.461 H 3861.61 V 722.809" /><path
         id="path30"
         style="fill:#d7c9c4;fill-opacity:1;fill-rule:evenodd;stroke:none;stroke-width:2.59452"
         d="m 3308.13,3913.5 c 271.29,0 492.55,221.26 492.55,492.54 0,271.28 -221.26,492.55 -492.55,492.55 -271.27,0 -492.53,-221.27 -492.53,-492.55 0,-271.28 221.26,-492.54 492.53,-492.54" /><path
         id="path32"
         style="fill:#b2a29e;fill-opacity:1;fill-rule:evenodd;stroke:none;stroke-width:2.59452"
         d="m 3145.45,722.809 h -364.94 v 174.48 c 0,95.961 78.51,174.461 174.48,174.461 h 190.46 V 722.809" /><path
         id="path34"
         style="fill:#766764;fill-opacity:1;fill-rule:evenodd;stroke:none;stroke-width:2.59452"
         d="m 3308.13,4898.58 c 63.16,0 123.53,-11.89 179.03,-33.56 -19.29,2.3 -38.91,3.51 -58.81,3.51 -272.03,0 -492.54,-220.52 -492.54,-492.55 0,-208.87 130.01,-387.34 313.52,-458.97 -244.3,29.07 -433.73,236.9 -433.73,489.03 0,272.02 220.5,492.54 492.53,492.54" /><path
         id="path36"
         style="fill:#d7c9c4;fill-opacity:1;fill-rule:evenodd;stroke:none;stroke-width:2.59452"
         d="m 3002.46,722.809 h 470.69 V 2903.37 H 3002.46 V 722.809" /><path
         id="path38"
         style="fill:#d7c9c4;fill-opacity:1;fill-rule:evenodd;stroke:none;stroke-width:2.59452"
         d="m 3219.93,2746.42 h 912.99 v -262.13 c 0,-144.18 -117.96,-262.13 -262.13,-262.13 h -650.86 v 524.26" /><path
         id="path40"
         style="fill:#ecdfd9;fill-opacity:1;fill-rule:evenodd;stroke:none;stroke-width:2.59452"
         d="m 3329.83,4170.62 h 480.86 c 205.71,0 374,-168.3 374,-374 v -899.94 c 0,-205.7 -168.29,-373.99 -374,-373.99 h -480.86 c -205.69,0 -373.99,168.29 -373.99,373.99 v 899.94 c 0,205.7 168.3,374 373.99,374" /><path
         id="path42"
         style="fill:#463c3b;fill-opacity:1;fill-rule:evenodd;stroke:none;stroke-width:2.59452"
         d="m 3329.83,4170.62 h 14.41 l 1.93,-199.15 -2.5,-0.41 -90.62,-4.18 c -6,89.17 -69.9,184.81 -165.42,114.12 65.38,55.81 150.03,89.62 242.2,89.62" /><path
         id="path44"
         style="fill:#ecdfd9;fill-opacity:1;fill-rule:evenodd;stroke:none;stroke-width:2.59452"
         d="m 2966.71,1494.2 h 542.2 v 290.5 h -542.2 v -290.5" /><path
         id="path46"
         style="fill:#d7c9c4;fill-opacity:1;fill-rule:evenodd;stroke:none;stroke-width:2.59452"
         d="m 4234.79,4444.45 v 0 c 106.52,0 193.69,-87.16 193.69,-193.68 V 3142.12 c 0,-106.53 -87.17,-193.68 -193.69,-193.68 v 0 h -788.07 v 1496.01 h 788.07" /><path
         id="path48"
         style="fill:#b2a29e;fill-opacity:1;fill-rule:evenodd;stroke:none;stroke-width:2.59452"
         d="m 3446.72,4444.45 v 0 c 106.53,0 193.68,-87.16 193.68,-193.68 V 3142.12 c 0,-106.53 -87.15,-193.68 -193.68,-193.68 v 0 c -106.52,0 -193.67,87.15 -193.67,193.68 v 1108.65 c 0,106.52 87.15,193.68 193.67,193.68" /><g
         id="g1008"
         transform="matrix(0,0.95237951,-1.0500016,0,6110.5569,1419.4719)"
         style="stroke-width:2.59452"><g
           id="g1002"
           style="stroke-width:2.59452"><path
             id="path50"
             style="fill:#d7c9c4;fill-opacity:1;fill-rule:evenodd;stroke:none;stroke-width:2.59452"
             d="m 2999.44,3914.18 c 83.37,24.84 171.13,-22.62 195.97,-106 24.83,-83.39 -22.63,-171.13 -106,-195.98 -59.23,-17.8 -122.25,-59.53 -181.75,-114.57 -84.04,-77.72 -157.79,-178.94 -205.29,-278.9 -39.8,-83.75 -59.48,-159.02 -46.01,-203.84 1.16,-3.87 1.99,-6.17 2.41,-6.63 58.88,-63.64 55.02,-162.97 -8.63,-221.85 -63.64,-58.87 -162.96,-55.02 -221.85,8.63 -35.2,38.07 -59.45,81.82 -73.9,129.88 -37.15,123.57 -7.94,278.29 63.27,428.15 63.52,133.68 162.93,269.75 276.77,375.03 93.7,86.67 198.73,154.13 305.01,186.08" /><path
             id="path52"
             style="fill:#b2a29e;fill-opacity:1;fill-rule:evenodd;stroke:none;stroke-width:2.59452"
             d="m 2744.34,3203.28 c -11.35,-26.08 -43.01,-42.96 -81.5,-40.74 -105.3,6.07 -193.36,55.51 -253.37,142.25 -21.9,31.63 -29.86,67.03 -17.92,87.7 l 61.5,106.45 17.79,-73.86 v -4.16 l 83.07,-86.83 149.84,-63.45 86.49,13.29 -45.89,-80.65 h -0.01" /></g><path
           id="path54"
           style="fill:#ecdfd9;fill-opacity:1;fill-rule:evenodd;stroke:none;stroke-width:2.59452"
           d="m 2507.39,3509.05 -12.6,-18.97 c -57.96,-87.29 205.29,-257.57 263.97,-170.74 l 21.77,32.2 c 41.04,-63.12 -9.42,-113.52 -75.98,-104.42 -104.51,14.25 -188.45,70.41 -241.52,161.54 -32.61,56 -25,119.53 44.36,100.39" /></g><path
         id="path56"
         style="fill:#463c3b;fill-opacity:1;fill-rule:evenodd;stroke:none;stroke-width:2.59452"
         d="m 2924.17,3193 h 328.88 v 135.25 H 2924.17 V 3193" /><g
         id="g1013"
         style="stroke-width:2.59452"><path
           id="path16"
           style="fill:#463c3b;fill-opacity:1;fill-rule:evenodd;stroke:none;stroke-width:2.59452"
           d="m 1101.65,4715.51 c 365.2,0 663.06,297.87 663.06,663.07 0,365.21 -297.86,663.07 -663.06,663.07 -365.205,0 -663.064,-297.86 -663.064,-663.07 0,-365.2 297.859,-663.07 663.064,-663.07" /><path
           id="path58"
           style="fill:#766764;fill-opacity:1;fill-rule:evenodd;stroke:none;stroke-width:2.59452"
           d="m 1101.65,4894.77 c 266.47,0 483.8,217.34 483.8,483.81 0,266.47 -217.33,483.81 -483.8,483.81 -266.474,0 -483.806,-217.34 -483.806,-483.81 0,-266.47 217.332,-483.81 483.806,-483.81" /><path
           id="path60"
           style="fill:#c8b7b7;fill-opacity:1;fill-rule:evenodd;stroke:none;stroke-width:2.59452"
           d="m 1101.65,5074.04 c 167.73,0 304.54,136.8 304.54,304.54 0,167.74 -136.81,304.54 -304.54,304.54 -167.74,0 -304.545,-136.8 -304.545,-304.54 0,-167.74 136.805,-304.54 304.545,-304.54" /></g><path
         id="path62"
         style="fill:#d7c9c4;fill-opacity:1;fill-rule:evenodd;stroke:none;stroke-width:2.59452"
         d="m 5284.89,6109.09 10.37,-173.37 173.34,-10.37 -173.34,-10.36 -10.37,-173.36 -10.36,173.36 -173.37,10.36 173.37,10.37 10.36,173.37" /><path
         id="path64"
         style="fill:#d7c9c4;fill-opacity:1;fill-rule:evenodd;stroke:none;stroke-width:2.59452"
         d="m 3076.71,5787.14 10.37,-173.36 173.36,-10.37 -173.36,-10.36 -10.37,-173.36 -10.36,173.36 -173.38,10.36 173.38,10.37 10.36,173.36" /><path
         id="path66"
         style="fill:#d7c9c4;fill-opacity:1;fill-rule:evenodd;stroke:none;stroke-width:2.59452"
         d="m 1162,4198.89 10.36,-173.36 173.36,-10.36 -173.36,-10.37 -10.36,-173.36 -10.37,173.36 -173.364,10.37 173.364,10.36 10.37,173.36" /><path
         id="path68"
         style="fill:#d7c9c4;fill-opacity:1;fill-rule:evenodd;stroke:none;stroke-width:2.59452"
         d="m 6096.46,3984.89 10.38,-173.36 173.34,-10.37 -173.34,-10.36 -10.38,-173.36 -10.36,173.36 -173.35,10.36 173.35,10.37 10.36,173.36" /><path
         id="path70"
         style="fill:#d7c9c4;fill-opacity:1;fill-rule:evenodd;stroke:none;stroke-width:2.59452"
         d="m 5140.44,3437.48 10.36,-173.35 173.37,-10.36 -173.37,-10.37 -10.36,-173.37 -10.37,173.37 -173.35,10.37 173.35,10.36 10.37,173.35" /><path
         id="path72"
         style="fill:#948580;fill-opacity:1;fill-rule:evenodd;stroke:none;stroke-width:2.59452"
         d="m 4906.05,4817.56 7.89,-131.81 131.8,-7.88 -131.8,-7.87 -7.89,-131.81 -7.88,131.81 -131.81,7.87 131.81,7.88 7.88,131.81" /><path
         id="path74"
         style="fill:#948580;fill-opacity:1;fill-rule:evenodd;stroke:none;stroke-width:2.59452"
         d="m 4064,5782.48 7.88,-131.81 131.81,-7.88 -131.81,-7.88 -7.88,-131.8 -7.88,131.8 -131.79,7.88 131.79,7.88 7.88,131.81" /><path
         id="path76"
         style="fill:#948580;fill-opacity:1;fill-rule:evenodd;stroke:none;stroke-width:2.59452"
         d="m 1438.42,3465.56 7.88,-131.8 131.8,-7.88 -131.8,-7.87 -7.88,-131.8 -7.88,131.8 -131.81,7.87 131.81,7.88 7.88,131.8" /><path
         id="path78"
         style="fill:#948580;fill-opacity:1;fill-rule:evenodd;stroke:none;stroke-width:2.59452"
         d="m 2125.67,6009.84 7.88,-131.81 131.81,-7.88 -131.81,-7.88 -7.88,-131.8 -7.88,131.8 -131.8,7.88 131.8,7.88 7.88,131.81" /><path
         id="path80"
         style="fill:#948580;fill-opacity:1;fill-rule:evenodd;stroke:none;stroke-width:2.59452"
         d="m 6161.45,5011.49 7.88,-131.81 131.8,-7.88 -131.8,-7.87 -7.88,-131.81 -7.89,131.81 -131.8,7.87 131.8,7.88 7.89,131.81" /><path
         id="path62-6"
         style="fill:#d7c9c4;fill-opacity:1;fill-rule:evenodd;stroke:none;stroke-width:2.59452"
         d="m -703.27195,5794.3022 10.37,-173.37 173.34,-10.37 -173.34,-10.36 -10.37,-173.36 -10.36,173.36 -173.37,10.36 173.37,10.37 10.36,173.37" /><path
         id="path64-2"
         style="fill:#d7c9c4;fill-opacity:1;fill-rule:evenodd;stroke:none;stroke-width:2.59452"
         d="m -2911.452,5472.3522 10.37,-173.36 173.36,-10.37 -173.36,-10.36 -10.37,-173.36 -10.36,173.36 -173.38,10.36 173.38,10.37 10.36,173.36" /><path
         id="path70-1"
         style="fill:#d7c9c4;fill-opacity:1;fill-rule:evenodd;stroke:none;stroke-width:2.59452"
         d="m -847.72195,3122.6922 10.36,-173.35 173.37,-10.36 -173.37,-10.37 -10.36,-173.37 -10.37,173.37 -173.35005,10.37 173.35005,10.36 10.37,173.35" /><path
         id="path70-1-3"
         style="fill:#d7c9c4;fill-opacity:1;fill-rule:evenodd;stroke:none;stroke-width:2.59452"
         d="m -2822.1447,3171.0751 10.36,-173.35 173.37,-10.36 -173.37,-10.37 -10.36,-173.37 -10.37,173.37 -173.35,10.37 173.35,10.36 10.37,173.35" /><path
         id="path72-8"
         style="fill:#948580;fill-opacity:1;fill-rule:evenodd;stroke:none;stroke-width:2.59452"
         d="m -1082.112,4502.7722 7.89,-131.81 131.80005,-7.88 -131.80005,-7.87 -7.89,-131.81 -7.88,131.81 -131.81,7.87 131.81,7.88 7.88,131.81" /><path
         id="path74-7"
         style="fill:#948580;fill-opacity:1;fill-rule:evenodd;stroke:none;stroke-width:2.59452"
         d="m -1924.162,5467.6922 7.88,-131.81 131.81,-7.88 -131.81,-7.88 -7.88,-131.8 -7.88,131.8 -131.79,7.88 131.79,7.88 7.88,131.81" /><path
         id="path74-7-9"
         style="fill:#948580;fill-opacity:1;fill-rule:evenodd;stroke:none;stroke-width:2.59452"
         d="m -3404.6359,4323.6267 7.88,-131.81 131.81,-7.88 -131.81,-7.88 -7.88,-131.8 -7.88,131.8 -131.79,7.88 131.79,7.88 7.88,131.81" /><path
         id="path78-9"
         style="fill:#948580;fill-opacity:1;fill-rule:evenodd;stroke:none;stroke-width:2.59452"
         d="m -3862.492,5695.0522 7.88,-131.81 131.81,-7.88 -131.81,-7.88 -7.88,-131.8 -7.88,131.8 -131.8,7.88 131.8,7.88 7.88,131.81" /><path
         id="path80-2"
         style="fill:#948580;fill-opacity:1;fill-rule:evenodd;stroke:none;stroke-width:2.59452"
         d="m 173.28805,4696.7022 7.88,-131.81 131.8,-7.88 -131.8,-7.87 -7.88,-131.81 -7.89,131.81 -131.8,7.87 131.8,7.88 7.89,131.81" /><path
         id="path62-0"
         style="fill:#d7c9c4;fill-opacity:1;fill-rule:evenodd;stroke:none;stroke-width:2.59452"
         d="m -5520.9278,5711.0648 10.37,-173.37 173.34,-10.37 -173.34,-10.36 -10.37,-173.36 -10.36,173.36 -173.37,10.36 173.37,10.37 10.36,173.37" /><path
         id="path68-7"
         style="fill:#d7c9c4;fill-opacity:1;fill-rule:evenodd;stroke:none;stroke-width:2.59452"
         d="m -4709.3578,3586.8648 10.38,-173.36 173.34,-10.37 -173.34,-10.36 -10.38,-173.36 -10.36,173.36 -173.35,10.36 173.35,10.37 10.36,173.36" /><path
         id="path70-5"
         style="fill:#d7c9c4;fill-opacity:1;fill-rule:evenodd;stroke:none;stroke-width:2.59452"
         d="m -5665.3778,3039.4548 10.36,-173.35 173.37,-10.36 -173.37,-10.37 -10.36,-173.37 -10.37,173.37 -173.35,10.37 173.35,10.36 10.37,173.35" /><path
         id="path72-9"
         style="fill:#948580;fill-opacity:1;fill-rule:evenodd;stroke:none;stroke-width:2.59452"
         d="m -5899.7678,4419.5348 7.89,-131.81 131.8,-7.88 -131.8,-7.87 -7.89,-131.81 -7.88,131.81 -131.81,7.87 131.81,7.88 7.88,131.81" /><path
         id="path74-2"
         style="fill:#948580;fill-opacity:1;fill-rule:evenodd;stroke:none;stroke-width:2.59452"
         d="m -6741.8178,5384.4548 7.88,-131.81 131.81,-7.88 -131.81,-7.88 -7.88,-131.8 -7.88,131.8 -131.79,7.88 131.79,7.88 7.88,131.81" /><path
         id="path78-2"
         style="fill:#948580;fill-opacity:1;fill-rule:evenodd;stroke:none;stroke-width:2.59452"
         d="m -8680.1478,5611.8148 7.88,-131.81 131.81,-7.88 -131.81,-7.88 -7.88,-131.8 -7.88,131.8 -131.8,7.88 131.8,7.88 7.88,131.81" /><path
         id="path80-8"
         style="fill:#948580;fill-opacity:1;fill-rule:evenodd;stroke:none;stroke-width:2.59452"
         d="m -4644.3678,4613.4648 7.88,-131.81 131.8,-7.88 -131.8,-7.87 -7.88,-131.81 -7.89,131.81 -131.8,7.87 131.8,7.88 7.89,131.81" /><path
         id="path62-9"
         style="fill:#d7c9c4;fill-opacity:1;fill-rule:evenodd;stroke:none;stroke-width:2.59452"
         d="m -8508.6884,3085.1987 -10.37,173.37 -173.34,10.37 173.34,10.36 10.37,173.36 10.36,-173.36 173.37,-10.36 -173.37,-10.37 -10.36,-173.37" /><path
         id="path68-3"
         style="fill:#d7c9c4;fill-opacity:1;fill-rule:evenodd;stroke:none;stroke-width:2.59452"
         d="m -9320.2584,5209.399 -10.38,173.36 -173.34,10.37 173.34,10.36 10.38,173.36 10.36,-173.36 173.35,-10.36 -173.35,-10.37 -10.36,-173.36" /><path
         id="path70-6"
         style="fill:#d7c9c4;fill-opacity:1;fill-rule:evenodd;stroke:none;stroke-width:2.59452"
         d="m -8364.2384,5756.809 -10.36,173.35 -173.37,10.36 173.37,10.37 10.36,173.37 10.37,-173.37 173.35,-10.37 -173.35,-10.36 -10.37,-173.35" /><path
         id="path72-1"
         style="fill:#948580;fill-opacity:1;fill-rule:evenodd;stroke:none;stroke-width:2.59452"
         d="m -8129.8484,4376.7287 -7.89,131.81 -131.8,7.88 131.8,7.87 7.89,131.81 7.88,-131.81 131.81,-7.87 -131.81,-7.88 -7.88,-131.81" /><path
         id="path74-29"
         style="fill:#948580;fill-opacity:1;fill-rule:evenodd;stroke:none;stroke-width:2.59452"
         d="m -7287.7984,3411.8087 -7.88,131.81 -131.81,7.88 131.81,7.88 7.88,131.8 7.88,-131.8 131.79,-7.88 -131.79,-7.88 -7.88,-131.81" /><path
         id="path80-1"
         style="fill:#948580;fill-opacity:1;fill-rule:evenodd;stroke:none;stroke-width:2.59452"
         d="m -9385.2484,4182.7987 -7.88,131.81 -131.8,7.88 131.8,7.87 7.88,131.81 7.89,-131.81 131.8,-7.87 -131.8,-7.88 -7.89,-131.81" /><g
         id="g1021"
         transform="matrix(0.4965041,0,0,0.47285463,4754.9107,1585.3271)"
         style="stroke-width:5.35465"><path
           id="path1015"
           style="fill:#463c3b;fill-opacity:1;fill-rule:evenodd;stroke:none;stroke-width:5.35465"
           d="m 1101.65,4715.51 c 365.2,0 663.06,297.87 663.06,663.07 0,365.21 -297.86,663.07 -663.06,663.07 -365.205,0 -663.064,-297.86 -663.064,-663.07 0,-365.2 297.859,-663.07 663.064,-663.07" /><path
           id="path1017"
           style="fill:#766764;fill-opacity:1;fill-rule:evenodd;stroke:none;stroke-width:5.35465"
           d="m 1101.65,4894.77 c 266.47,0 483.8,217.34 483.8,483.81 0,266.47 -217.33,483.81 -483.8,483.81 -266.474,0 -483.806,-217.34 -483.806,-483.81 0,-266.47 217.332,-483.81 483.806,-483.81" /><path
           id="path1019"
           style="fill:#c8b7b7;fill-opacity:1;fill-rule:evenodd;stroke:none;stroke-width:5.35465"
           d="m 1101.65,5074.04 c 167.73,0 304.54,136.8 304.54,304.54 0,167.74 -136.81,304.54 -304.54,304.54 -167.74,0 -304.545,-136.8 -304.545,-304.54 0,-167.74 136.805,-304.54 304.545,-304.54" /></g></g></g></svg>
