<?xml version="1.0" encoding="UTF-8" standalone="no"?>
<!-- Created with Inkscape (http://www.inkscape.org/) -->

<svg
   width="1280"
   height="480"
   viewBox="0 0 338.66666 127"
   version="1.1"
   id="svg5"
   inkscape:version="1.2 (dc2aedaf03, 2022-05-15)"
   sodipodi:docname="banner.small.svg"
   xml:space="preserve"
   inkscape:export-filename="banner.small.png"
   inkscape:export-xdpi="96"
   inkscape:export-ydpi="96"
   xmlns:inkscape="http://www.inkscape.org/namespaces/inkscape"
   xmlns:sodipodi="http://sodipodi.sourceforge.net/DTD/sodipodi-0.dtd"
   xmlns="http://www.w3.org/2000/svg"
   xmlns:svg="http://www.w3.org/2000/svg"><sodipodi:namedview
     id="namedview7"
     pagecolor="#919191"
     bordercolor="#ffffff"
     borderopacity="1"
     inkscape:pageshadow="0"
     inkscape:pageopacity="1"
     inkscape:pagecheckerboard="false"
     inkscape:document-units="px"
     showgrid="false"
     units="px"
     width="1080px"
     inkscape:zoom="0.79514997"
     inkscape:cx="645.16131"
     inkscape:cy="243.97913"
     inkscape:window-width="1920"
     inkscape:window-height="1037"
     inkscape:window-x="0"
     inkscape:window-y="43"
     inkscape:window-maximized="1"
     inkscape:current-layer="layer2"
     inkscape:snap-bbox="false"
     inkscape:bbox-paths="true"
     inkscape:bbox-nodes="true"
     inkscape:snap-bbox-edge-midpoints="true"
     inkscape:snap-bbox-midpoints="true"
     showguides="false"
     inkscape:object-nodes="false"
     inkscape:snap-nodes="true"
     inkscape:object-paths="true"
     inkscape:snap-intersection-paths="true"
     inkscape:snap-smooth-nodes="false"
     inkscape:snap-midpoints="false"
     inkscape:snap-global="true"
     inkscape:showpageshadow="0"
     inkscape:deskcolor="#919191"><inkscape:grid
       type="xygrid"
       id="grid120"
       empspacing="4"
       spacingx="0.13229166"
       spacingy="0.13229166"
       originx="0"
       originy="0" /></sodipodi:namedview><defs
     id="defs2"><rect
       x="496"
       y="336"
       width="912"
       height="192"
       id="rect496" /><rect
       x="496"
       y="320"
       width="656"
       height="191.99998"
       id="rect490" /><rect
       x="152"
       y="128"
       width="720"
       height="200"
       id="rect38338" /><inkscape:path-effect
       effect="powerstroke"
       id="path-effect6913"
       is_visible="true"
       lpeversion="1"
       offset_points="0,0"
       not_jump="false"
       sort_points="true"
       interpolator_type="CubicBezierJohan"
       interpolator_beta="0.2"
       start_linecap_type="zerowidth"
       linejoin_type="extrp_arc"
       miter_limit="4"
       scale_width="1"
       end_linecap_type="zerowidth" /><inkscape:path-effect
       effect="spiro"
       id="path-effect5680"
       is_visible="true"
       lpeversion="1" /><inkscape:path-effect
       effect="powerstroke"
       id="path-effect5692"
       is_visible="true"
       lpeversion="1"
       offset_points="0,4.99214"
       not_jump="false"
       sort_points="true"
       interpolator_type="CubicBezierJohan"
       interpolator_beta="0.2"
       start_linecap_type="zerowidth"
       linejoin_type="extrp_arc"
       miter_limit="4"
       scale_width="1"
       end_linecap_type="zerowidth" /><inkscape:path-effect
       effect="powerstroke"
       id="path-effect5686"
       is_visible="true"
       lpeversion="1"
       offset_points="0,4.99214"
       not_jump="false"
       sort_points="true"
       interpolator_type="CubicBezierJohan"
       interpolator_beta="0.2"
       start_linecap_type="zerowidth"
       linejoin_type="extrp_arc"
       miter_limit="4"
       scale_width="1"
       end_linecap_type="zerowidth" /><linearGradient
       id="gradient"
       x1="0"
       y1="212.98547"
       x2="141.99031"
       y2="212.98547"
       gradientTransform="matrix(0.63106805,0,0,0.0315534,0,50.799994)"
       gradientUnits="userSpaceOnUse"><stop
         offset="5%"
         stop-color="#002bdcff"
         id="stop850" /><stop
         offset="95%"
         stop-color="#32ded4ff"
         id="stop852" /></linearGradient><linearGradient
       id="gradient-2"
       x1="0"
       y1="70.995155"
       x2="141.99031"
       y2="70.995155"
       gradientTransform="matrix(-0.63106804,0,0,-0.09860438,337.96109,214.31249)"
       gradientUnits="userSpaceOnUse"><stop
         offset="5%"
         stop-color="#002bdcff"
         id="stop889" /><stop
         offset="95%"
         stop-color="#32ded4ff"
         id="stop891" /></linearGradient><linearGradient
       id="gradient-0"
       x1="0"
       y1="187.79784"
       x2="152.66219"
       y2="187.79784"
       gradientTransform="matrix(1.2472753,0,0,0.17608594,-309.03329,-45.558428)"
       gradientUnits="userSpaceOnUse"><stop
         offset="5%"
         stop-color="#002bdcff"
         id="stop905" /><stop
         offset="95%"
         stop-color="#32ded4ff"
         id="stop907" /></linearGradient><rect
       x="152"
       y="128"
       width="3097.2292"
       height="164.55804"
       id="rect38338-3" /></defs><g
     inkscape:groupmode="layer"
     id="layer2"
     inkscape:label="Layer 2"><g
       id="g3013"
       transform="matrix(0.26458333,0,0,-0.23682117,-1.2e-6,151.80237)"
       style="display:inline;stroke-width:1.05699"><path
         d="m 0,65 h 56 v 0 h 55 V 52 h 56 v 13 h 56 V 52 h 55 v 13 h 56 V 52 h 56 v 13 h 55 v -6 h 56 v -7 h 56 v 13 h 55 v -6 h 56 v 0 h 55 v 6 h 56 v -6 h 56 v 0 h 55 v 0 h 56 v -7 h 56 v 7 h 55 v 0 h 56 v 6 h 56 V 52 h 55 v 7 h 56 V 52 0 0 h -56 v 0 h -55 v 0 h -56 v 0 h -56 v 0 h -55 V 0 H 946 V 0 H 890 V 0 H 835 V 0 H 779 V 0 H 723 V 0 H 668 V 0 H 612 V 0 H 557 V 0 H 501 V 0 H 445 V 0 H 390 V 0 H 334 V 0 H 278 V 0 H 223 V 0 H 167 V 0 H 111 V 0 H 56 V 0 H 0 Z"
         fill="#ffe4f0"
         id="path2984"
         style="stroke-width:1.05781" /><path
         d="m 0,129 h 56 v 0 h 55 v -6 h 56 v 12 h 56 v -12 h 55 v 6 h 56 v -6 h 56 v 12 h 55 v -6 h 56 v -13 h 56 v 19 h 55 v -6 h 56 v 6 h 55 v -6 h 56 v 0 h 56 v 0 h 55 v 6 h 56 v -19 h 56 v 13 h 55 v -6 h 56 v 6 h 56 v 0 h 55 v -6 h 56 v 0 -73 7 h -56 v -7 h -55 v 13 h -56 v -6 h -56 v 0 h -55 v -7 h -56 v 7 h -56 v 0 h -55 v 0 h -56 v 6 h -56 v -6 h -55 v 0 h -56 v 6 H 557 V 50 h -56 v 7 h -56 v 6 H 390 V 50 H 334 V 63 H 278 V 50 H 223 V 63 H 167 V 50 H 111 V 63 H 56 v 0 H 0 Z"
         fill="#ffe8f2"
         id="path2986"
         style="stroke-width:1.05781" /><path
         d="m 0,174 h 56 v 0 h 55 v 0 h 56 v 6 h 56 v -6 h 55 v 0 h 56 v 0 h 56 v 6 h 55 v 0 h 56 v -13 h 56 v 13 h 55 v -6 h 56 v 6 h 55 v -6 h 56 v 6 h 56 v 0 h 55 v 0 h 56 v -13 h 56 v 13 h 55 v -6 h 56 v 0 h 56 v 6 h 55 v -6 h 56 v 0 -53 0 h -56 v 6 h -55 v 0 h -56 v -6 h -56 v 6 h -55 v -13 h -56 v 19 h -56 v -6 h -55 v 0 h -56 v 0 h -56 v 6 h -55 v -6 h -56 v 6 h -55 v -19 h -56 v 13 h -56 v 6 h -55 v -12 h -56 v 6 h -56 v -6 h -55 v 12 h -56 v -12 h -56 v 6 H 56 v 0 H 0 Z"
         fill="#ffecf4"
         id="path2988"
         style="stroke-width:1.05781" /><path
         d="m 0,212 h 56 v 0 h 55 v 0 h 56 v 7 h 56 v -7 h 55 v 0 h 56 v 0 h 56 v 7 h 55 v 0 h 56 v -13 h 56 v 13 h 55 v -7 h 56 v 7 h 55 v -7 h 56 v 7 h 56 v 0 h 55 v 0 h 56 v -13 h 56 v 13 h 55 v -7 h 56 v 0 h 56 v 7 h 55 v -7 h 56 v 0 -40 0 h -56 v 6 h -55 v -6 h -56 v 0 h -56 v 6 h -55 v -13 h -56 v 13 h -56 v 0 h -55 v 0 h -56 v -6 h -56 v 6 h -55 v -6 h -56 v 6 h -55 v -13 h -56 v 13 h -56 v 0 h -55 v -6 h -56 v 0 h -56 v 0 h -55 v 6 h -56 v -6 h -56 v 0 H 56 v 0 H 0 Z"
         fill="#fff0f6"
         id="path2990"
         style="stroke-width:1.05781" /><path
         d="m 0,257 h 56 v 0 h 55 v 0 h 56 v 6 h 56 v -6 h 55 v 0 h 56 v 0 h 56 v 6 h 55 v 0 h 56 v -12 h 56 v 12 h 55 v -6 h 56 v 6 h 55 v -6 h 56 v 6 h 56 v 0 h 55 v 0 h 56 v -12 h 56 v 12 h 55 v -6 h 56 v 0 h 56 v 6 h 55 v -6 h 56 v 0 -47 0 h -56 v 7 h -55 v -7 h -56 v 0 h -56 v 7 h -55 v -13 h -56 v 13 h -56 v 0 h -55 v 0 h -56 v -7 h -56 v 7 h -55 v -7 h -56 v 7 h -55 v -13 h -56 v 13 h -56 v 0 h -55 v -7 h -56 v 0 h -56 v 0 h -55 v 7 h -56 v -7 h -56 v 0 H 56 v 0 H 0 Z"
         fill="#fff4f8"
         id="path2992"
         style="stroke-width:1.05781" /><path
         d="m 0,417 h 56 v 0 h 55 v 6 h 56 v -12 h 56 v 0 h 55 v -7 h 56 v 13 h 56 v 6 h 55 v -6 h 56 v -6 h 56 v -13 h 55 v 13 h 56 v 19 h 55 v -13 h 56 v 13 h 56 v -13 h 55 v 0 h 56 v -6 h 56 v -7 h 55 v 7 h 56 v -7 h 56 v 19 h 55 v -6 h 56 v -6 -156 0 h -56 v 6 h -55 v -6 h -56 v 0 h -56 v 6 h -55 v -12 h -56 v 12 h -56 v 0 h -55 v 0 h -56 v -6 h -56 v 6 h -55 v -6 h -56 v 6 h -55 v -12 h -56 v 12 h -56 v 0 h -55 v -6 h -56 v 0 h -56 v 0 h -55 v 6 h -56 v -6 h -56 v 0 H 56 v 0 H 0 Z"
         fill="#fff8fa"
         id="path2994"
         style="stroke-width:1.05781" /><path
         d="m 0,500 h 56 v 7 h 55 v 0 h 56 v -7 h 56 v 0 h 55 v -6 h 56 v 19 h 56 v -6 h 55 v -7 h 56 v 0 h 56 v -6 h 55 v 0 h 56 v 19 h 55 v -13 h 56 v 13 h 56 v 0 h 55 v -13 h 56 v 0 h 56 v -13 h 55 v 20 h 56 v -7 h 56 v 19 h 55 v -19 h 56 v -6 -85 6 h -56 v 6 h -55 v -19 h -56 v 7 h -56 v -7 h -55 v 7 h -56 v 6 h -56 v 0 h -55 v 13 h -56 v -13 h -56 v 13 h -55 v -19 h -56 v -13 h -55 v 13 h -56 v 6 h -56 v 6 h -55 v -6 h -56 v -13 h -56 v 7 h -55 v 0 h -56 v 12 h -56 v -6 H 56 v 0 H 0 Z"
         fill="#fffbfd"
         id="path2996"
         style="stroke-width:1.05781" /><path
         d="m 0,641 h 56 v 0 h 55 v 0 h 56 v 0 h 56 v 0 h 55 v 0 h 56 v 0 h 56 v 0 h 55 v 0 h 56 v 0 h 56 v 0 h 55 v 0 h 56 v 0 h 55 v 0 h 56 v 0 h 56 v 0 h 55 v 0 h 56 v 0 h 56 v 0 h 55 v 0 h 56 v 0 h 56 v 0 h 55 v 0 h 56 v 0 -149 6 h -56 v 19 h -55 v -19 h -56 v 7 h -56 v -20 h -55 v 13 h -56 v 0 h -56 v 13 h -55 v 0 h -56 v -13 h -56 v 13 h -55 v -19 h -56 v 0 h -55 v 6 h -56 v 0 h -56 v 7 h -55 v 6 h -56 v -19 h -56 v 6 h -55 v 0 h -56 v 7 h -56 v 0 H 56 v -7 H 0 Z"
         fill="#ffffff"
         id="path2998"
         style="stroke-width:1.05781" /></g></g><g
     inkscape:groupmode="layer"
     id="layer1"
     inkscape:label="Layer 1"
     style="display:inline"><g
       id="g2076"
       transform="translate(5.5857338e-7,-31.29692)"><text
         xml:space="preserve"
         style="font-style:normal;font-variant:normal;font-weight:normal;font-stretch:normal;font-size:19.05px;line-height:1.25;font-family:Norwester;-inkscape-font-specification:Norwester;letter-spacing:2.38125px;stroke-width:0.264583"
         x="74.540558"
         y="92.286667"
         id="text1529"><tspan
           sodipodi:role="line"
           id="tspan1527"
           style="font-style:normal;font-variant:normal;font-weight:normal;font-stretch:normal;font-size:19.05px;font-family:Norwester;-inkscape-font-specification:Norwester;stroke-width:0.264583"
           x="74.540558"
           y="92.286667"
           dx="0">SUMARTIAN STUDIOS</tspan></text><text
         xml:space="preserve"
         style="font-style:normal;font-variant:normal;font-weight:normal;font-stretch:normal;font-size:12.1708px;line-height:1.25;font-family:Norwester;-inkscape-font-specification:Norwester;letter-spacing:0px;display:inline;opacity:0.6;stroke-width:0.264583"
         x="100.6543"
         y="111.58568"
         id="text1529-7"><tspan
           sodipodi:role="line"
           id="tspan1527-2"
           style="font-style:normal;font-variant:normal;font-weight:normal;font-stretch:normal;font-size:12.1708px;font-family:Norwester;-inkscape-font-specification:Norwester;stroke-width:0.264583"
           x="100.6543"
           y="111.58568">Art / History / Software</tspan></text></g></g></svg>
