<?xml version="1.0" encoding="UTF-8" standalone="no"?>
<!-- Created with Inkscape (http://www.inkscape.org/) -->

<svg
   width="15.999999"
   height="16"
   viewBox="0 0 4.233333 4.2333331"
   version="1.1"
   id="svg5"
   xml:space="preserve"
   xmlns:xlink="http://www.w3.org/1999/xlink"
   xmlns="http://www.w3.org/2000/svg"
   xmlns:svg="http://www.w3.org/2000/svg"><defs
     id="defs2"><linearGradient
       id="linearGradient8613"><stop
         style="stop-color:#000000;stop-opacity:1;"
         offset="0"
         id="stop8611" /></linearGradient><linearGradient
       id="linearGradient6922"><stop
         style="stop-color:#ff2f57;stop-opacity:1;"
         offset="0"
         id="stop6918" /><stop
         style="stop-color:#ff9557;stop-opacity:1;"
         offset="1"
         id="stop6920" /></linearGradient><linearGradient
       xlink:href="#linearGradient8613"
       id="linearGradient8615"
       x1="0"
       y1="2.1166666"
       x2="4.2333331"
       y2="2.1166666"
       gradientUnits="userSpaceOnUse" /><linearGradient
       xlink:href="#linearGradient6922"
       id="linearGradient8617"
       gradientUnits="userSpaceOnUse"
       x1="-0.40481716"
       y1="-1.8878193"
       x2="-4.3509731"
       y2="-1.8878193" /><linearGradient
       xlink:href="#linearGradient6922"
       id="linearGradient2"
       gradientUnits="userSpaceOnUse"
       x1="-0.40481716"
       y1="-1.8878193"
       x2="-4.3509731"
       y2="-1.8878193" /><linearGradient
       xlink:href="#linearGradient6922"
       id="linearGradient3"
       gradientUnits="userSpaceOnUse"
       x1="-0.40481716"
       y1="-1.8878193"
       x2="-4.3509731"
       y2="-1.8878193" /></defs><g
     id="layer2"><rect
       style="opacity:1;fill:url(#linearGradient8615);fill-opacity:1;stroke-width:0.264583"
       id="rect15034"
       width="4.2333331"
       height="4.2333331"
       x="0"
       y="0" /></g><g
     id="layer1"><g
       aria-label="ss"
       transform="matrix(-0.80269305,0,0,-1.0090996,0.21167066,0.21166886)"
       id="text461"
       style="font-size:3.37111px;line-height:0;font-family:Norwester;-inkscape-font-specification:Norwester;fill:url(#linearGradient8617);fill-opacity:1;stroke-width:0.293981"><path
         d="m -2.9935391,-0.7079308 c 0.3135132,0 0.4854398,-0.1685555 0.4854398,-0.4854399 v -0.583202 c 0,-0.064051 -0.03034,-0.1045044 -0.09102,-0.124731 l -0.8090664,-0.2629466 v -0.3404821 c 0,-0.09102 0.047196,-0.1348444 0.1348444,-0.1348444 h 0.18204 c 0.084278,0 0.1348444,0.043824 0.1348444,0.1348444 v 0.1415866 c 0,0.037082 0.016855,0.053938 0.053938,0.053938 h 0.3404821 c 0.033711,0 0.053938,-0.016855 0.053938,-0.053938 V -2.582268 c 0,-0.3168843 -0.1719266,-0.4854398 -0.4854398,-0.4854398 h -0.3775643 c -0.3168844,0 -0.4854399,0.1685555 -0.4854399,0.4854398 v 0.6337687 c 0,0.064051 0.03034,0.1045044 0.087649,0.1247311 l 0.815808,0.2629466 v 0.2865443 c 0,0.087649 -0.050567,0.1348444 -0.1348444,0.1348444 h -0.1854111 c -0.09102,0 -0.1348444,-0.047195 -0.1348444,-0.1348444 v -0.1415866 c 0,-0.033711 -0.020227,-0.053938 -0.053938,-0.053938 h -0.3404821 c -0.037082,0 -0.053938,0.020227 -0.053938,0.053938 v 0.2224932 c 0,0.3168844 0.1685555,0.4854399 0.4854399,0.4854399 z"
         id="path1122"
         style="fill:url(#linearGradient2);fill-opacity:1;stroke-width:0.293981" /><path
         d="m -1.7529723,-0.7079308 c -0.3135132,0 -0.4854398,-0.1685555 -0.4854398,-0.4854399 v -0.583202 c 0,-0.064051 0.03034,-0.1045044 0.09102,-0.124731 l 0.8090664,-0.2629466 v -0.3404821 c 0,-0.09102 -0.047195,-0.1348444 -0.1348444,-0.1348444 h -0.18204 c -0.084278,0 -0.1348444,0.043824 -0.1348444,0.1348444 v 0.1415866 c 0,0.037082 -0.016855,0.053938 -0.053938,0.053938 h -0.3404821 c -0.033711,0 -0.053938,-0.016855 -0.053938,-0.053938 V -2.582268 c 0,-0.3168843 0.1719266,-0.4854398 0.4854398,-0.4854398 h 0.3775643 c 0.3168844,0 0.4854399,0.1685555 0.4854399,0.4854398 v 0.6337687 c 0,0.064051 -0.03034,0.1045044 -0.087649,0.1247311 l -0.8158081,0.2629466 v 0.2865443 c 0,0.087649 0.050567,0.1348444 0.1348444,0.1348444 h 0.185411 c 0.09102,0 0.1348444,-0.047195 0.1348444,-0.1348444 v -0.1415866 c 0,-0.033711 0.020227,-0.053938 0.053938,-0.053938 h 0.3404821 c 0.037082,0 0.053938,0.020227 0.053938,0.053938 v 0.2224932 c 0,0.3168844 -0.1685555,0.4854399 -0.4854399,0.4854399 z"
         id="path1124"
         style="fill:url(#linearGradient3);fill-opacity:1;stroke-width:0.293981" /></g></g></svg>
