<?xml version="1.0" encoding="UTF-8" standalone="no"?>
<svg
   xmlns:dc="http://purl.org/dc/elements/1.1/"
   xmlns:cc="http://creativecommons.org/ns#"
   xmlns:rdf="http://www.w3.org/1999/02/22-rdf-syntax-ns#"
   xmlns:svg="http://www.w3.org/2000/svg"
   xmlns="http://www.w3.org/2000/svg"
   viewBox="0 0 878.66669 878.66669"
   height="878.66669"
   width="878.66669"
   xml:space="preserve"
   id="svg2"
   version="1.1"><metadata
     id="metadata8"><rdf:RDF><cc:Work
         rdf:about=""><dc:format>image/svg+xml</dc:format><dc:type
           rdf:resource="http://purl.org/dc/dcmitype/StillImage" /></cc:Work></rdf:RDF></metadata><defs
     id="defs6" /><g
     transform="matrix(1.3333333,0,0,-1.3333333,0,878.66667)"
     id="g10"><g
       transform="scale(0.1)"
       id="g12"><path
         id="path14"
         style="fill:#272433;fill-opacity:1;fill-rule:evenodd;stroke:none"
         d="M 0,0 H 6590.02 V 6590 H 0 V 0" /><path
         id="path16"
         style="fill:#433f53;fill-opacity:1;fill-rule:evenodd;stroke:none"
         d="m 2059.91,6018.16 c -61.24,0 -110.88,49.65 -110.88,110.89 0,61.23 49.64,110.87 110.88,110.87 h 347.34 c 61.24,0 110.88,-49.64 110.88,-110.87 0,-61.24 -49.64,-110.89 -110.88,-110.89 z M 510.922,2788.77 c -61.231,0 -110.871,49.66 -110.871,110.89 0,61.24 49.64,110.88 110.871,110.88 h 610.218 c 61.23,0 110.87,-49.64 110.87,-110.88 0,-61.23 -49.64,-110.89 -110.87,-110.89 H 510.922 Z M 1743.28,2462.05 c -61.24,0 -110.88,49.65 -110.88,110.89 0,61.24 49.64,110.86 110.88,110.86 h 1001.93 c 61.24,0 110.88,-49.62 110.88,-110.86 0,-61.24 -49.64,-110.89 -110.88,-110.89 H 1743.28 Z M 5655.41,930 c -61.24,0 -110.88,49.652 -110.88,110.89 0,61.22 49.64,110.87 110.88,110.87 h 497.55 c 61.24,0 110.89,-49.65 110.89,-110.87 0,-61.238 -49.65,-110.89 -110.89,-110.89 h -497.55 z m -28.15,1164.07 c -61.24,0 -110.89,49.66 -110.89,110.9 0,61.23 49.65,110.87 110.89,110.87 h 291 c 61.24,0 110.89,-49.64 110.89,-110.87 0,-61.24 -49.65,-110.9 -110.89,-110.9 h -291 z M 2125.62,5104 c 61.23,0 110.87,-49.64 110.87,-110.87 0,-61.24 -49.64,-110.88 -110.87,-110.88 h -741.63 c -61.23,0 -110.87,49.64 -110.87,110.88 0,61.23 49.64,110.87 110.87,110.87 h 741.63 z M 463.984,545.121 c -61.23,0 -110.875,49.641 -110.875,110.859 0,61.239 49.645,110.891 110.875,110.891 H 1675.44 c 61.23,0 110.87,-49.652 110.87,-110.891 0,-61.218 -49.64,-110.859 -110.87,-110.859 H 463.984 Z m 4731.426,80.918 c 61.24,0 110.88,-49.629 110.88,-110.867 0,-61.231 -49.64,-110.871 -110.88,-110.871 H 4829.3 c -61.24,0 -110.89,49.64 -110.89,110.871 0,61.238 49.65,110.867 110.89,110.867 h 366.11 z m -2478.36,172.52 c -61.24,0 -110.88,49.652 -110.88,110.89 0,61.242 49.64,110.881 110.88,110.881 h 1370.61 c 61.24,0 110.88,-49.639 110.88,-110.881 0,-61.238 -49.64,-110.89 -110.88,-110.89 H 2717.05 Z m 2478.36,869.531 c 61.24,0 110.88,-49.63 110.88,-110.87 0,-61.24 -49.64,-110.89 -110.88,-110.89 h -638.37 c -61.22,0 -110.87,49.65 -110.87,110.89 0,61.24 49.65,110.87 110.87,110.87 h 638.37 z M 567.25,4375.31 c -61.238,0 -110.871,49.64 -110.871,110.88 0,61.24 49.633,110.88 110.871,110.88 h 995.1 c 61.24,0 110.88,-49.64 110.88,-110.88 0,-61.24 -49.64,-110.88 -110.88,-110.88 h -995.1 z m 0,1098.37 c -61.238,0 -110.871,49.64 -110.871,110.87 0,61.24 49.633,110.88 110.871,110.88 h 901.23 c 61.24,0 110.88,-49.64 110.88,-110.88 0,-61.23 -49.64,-110.87 -110.88,-110.87 H 567.25 v 0" /><path
         id="path18"
         style="fill:#f36530;fill-opacity:1;fill-rule:evenodd;stroke:none"
         d="m 2159.51,2572.94 291.18,-289.98 c 85.16,-84.82 130.14,-186.18 135.87,-306.25 l 17.06,-357.55 -698.63,443.55 254.52,510.23" /><path
         id="path20"
         style="fill:#ffffff;fill-opacity:1;fill-rule:evenodd;stroke:none"
         d="m 2057.01,1966.18 543.02,-271.81 3.59,-75.21 z" /><path
         id="path22"
         style="fill:#f36530;fill-opacity:1;fill-rule:evenodd;stroke:none"
         d="M 1327.04,2572.94 1035.87,2282.96 C 950.699,2198.14 905.723,2096.78 899.984,1976.71 l -17.054,-357.55 698.63,443.55 -254.52,510.23" /><path
         id="path24"
         style="fill:#ffffff;fill-opacity:1;fill-rule:evenodd;stroke:none"
         d="m 1429.55,1966.18 -543.03,-271.81 -3.59,-75.21 z" /><path
         id="path26"
         style="fill:#ffffff;fill-opacity:1;fill-rule:evenodd;stroke:none"
         d="m 1463.61,1797.01 c 22.93,0 44.7,-4.95 64.3,-13.85 29.26,56.23 88.04,94.63 155.8,94.63 75.02,0 139.04,-47.08 164.15,-113.3 29.74,35.97 74.71,58.91 125.03,58.91 89.56,0 162.16,-72.6 162.16,-162.16 0,-49.13 -21.86,-93.14 -56.37,-122.9 2.25,-10.94 3.43,-22.26 3.43,-33.87 0,-92.32 -74.84,-167.16 -167.16,-167.16 -20.54,0 -40.21,3.7 -58.39,10.48 11.33,-20.4 17.8,-43.88 17.8,-68.87 0,-78.48 -63.61,-142.09 -142.09,-142.09 -67.68,0 -124.3,47.32 -138.59,110.67 -66.15,24.22 -113.35,87.71 -113.35,162.24 0,28.63 6.96,55.64 19.29,79.42 -11.55,-2.75 -23.61,-4.19 -36.01,-4.19 -86.16,0 -156.02,69.84 -156.02,156.01 0,86.17 69.86,156.03 156.02,156.03" /><path
         id="path28"
         style="fill:#d74520;fill-opacity:1;fill-rule:evenodd;stroke:none"
         d="m 1429.55,1782.86 h 627.46 v 771.47 c 0,172.56 -141.17,313.73 -313.73,313.73 v 0 c -172.56,0 -313.73,-141.17 -313.73,-313.73 v -771.47" /><path
         id="path30"
         style="fill:#2f2b3b;fill-opacity:1;fill-rule:evenodd;stroke:none"
         d="m 4444.2,2365.71 c 1137.54,0 2065.32,927.78 2065.32,2065.32 0,1137.52 -927.78,2065.31 -2065.32,2065.31 -1137.53,0 -2065.3,-927.79 -2065.3,-2065.31 0,-1137.54 927.77,-2065.32 2065.3,-2065.32" /><path
         id="path32"
         style="fill:#433f53;fill-opacity:1;fill-rule:evenodd;stroke:none"
         d="m 4444.2,6170.88 c 960.91,0 1739.87,-778.96 1739.87,-1739.85 0,-960.91 -778.96,-1739.86 -1739.87,-1739.86 -960.9,0 -1739.85,778.95 -1739.85,1739.86 0,960.89 778.95,1739.85 1739.85,1739.85" /><path
         id="path34"
         style="fill:#59546c;fill-opacity:1;fill-rule:evenodd;stroke:none"
         d="m 4444.2,5845.45 c 781.17,0 1414.43,-633.26 1414.43,-1414.42 0,-781.17 -633.26,-1414.44 -1414.43,-1414.44 -781.16,0 -1414.41,633.27 -1414.41,1414.44 0,781.16 633.25,1414.42 1414.41,1414.42" /><path
         id="path36"
         style="fill:#706b85;fill-opacity:1;fill-rule:evenodd;stroke:none"
         d="m 4444.2,3342.05 c 599.8,0 1088.99,489.19 1088.99,1088.98 0,599.79 -489.19,1088.97 -1088.99,1088.97 -599.8,0 -1088.97,-489.18 -1088.97,-1088.97 0,-599.79 489.17,-1088.98 1088.97,-1088.98" /><path
         id="path38"
         style="fill:#e4d8ef;fill-opacity:1;fill-rule:evenodd;stroke:none"
         d="m 4444.2,3342.05 c 599.8,0 1088.99,489.19 1088.99,1088.98 0,599.79 -489.19,1088.97 -1088.99,1088.97 -599.8,0 -1088.97,-489.18 -1088.97,-1088.97 0,-599.79 489.17,-1088.98 1088.97,-1088.98" /><path
         id="path40"
         style="fill:#ffffff;fill-opacity:1;fill-rule:evenodd;stroke:none"
         d="m 4444.2,5520 c -12.57,0 -25.07,-0.28 -37.54,-0.71 584.03,-19.81 1051.44,-499.42 1051.44,-1088.26 0,-588.86 -467.41,-1068.47 -1051.44,-1088.28 12.47,-0.42 24.97,-0.7 37.54,-0.7 601.43,0 1088.99,487.54 1088.99,1088.98 0,601.42 -487.56,1088.97 -1088.99,1088.97" /><path
         id="path42"
         style="fill:#f1e9f6;fill-opacity:1;fill-rule:evenodd;stroke:none"
         d="m 4192.58,5280.64 c 290.36,0 471.97,-235.38 405.64,-525.73 -66.32,-290.36 -355.47,-525.74 -645.82,-525.74 -290.36,0 -471.97,235.38 -405.65,525.74 66.33,290.35 355.48,525.73 645.83,525.73" /><path
         id="path44"
         style="fill:#59546c;fill-opacity:1;fill-rule:evenodd;stroke:none"
         d="m 4761.04,4093.07 c 136.1,0 246.43,-110.33 246.43,-246.43 0,-136.1 -110.33,-246.43 -246.43,-246.43 -136.1,0 -246.43,110.33 -246.43,246.43 0,136.1 110.33,246.43 246.43,246.43 z m 307.46,497.55 c 59.63,0 107.96,-48.33 107.96,-107.96 0,-59.63 -48.33,-107.96 -107.96,-107.96 -59.62,0 -107.95,48.33 -107.95,107.96 0,59.63 48.33,107.96 107.95,107.96 z m -556.22,760.41 c 151.65,0 274.59,-122.94 274.59,-274.59 0,-151.65 -122.94,-274.59 -274.59,-274.59 -151.65,0 -274.59,122.94 -274.59,274.59 0,151.65 122.94,274.59 274.59,274.59 z M 4343.3,4614.08 c 104.98,0 190.09,-85.11 190.09,-190.1 0,-104.99 -85.11,-190.1 -190.09,-190.1 -105,0 -190.11,85.11 -190.11,190.1 0,104.99 85.11,190.1 190.11,190.1 z m -467.05,-497.55 c 98.51,0 178.37,-79.85 178.37,-178.36 0,-98.51 -79.86,-178.37 -178.37,-178.37 -98.51,0 -178.36,79.86 -178.36,178.37 0,98.51 79.85,178.36 178.36,178.36 v 0" /><path
         id="path46"
         style="fill:#797589;fill-opacity:1;fill-rule:evenodd;stroke:none"
         d="m 4498.77,4533.38 c -72.76,-104.9 -174.83,-190.99 -289.21,-244.49 -34.81,34.45 -56.37,82.25 -56.37,135.09 0,104.99 85.11,190.1 190.11,190.1 64.25,0 121.06,-31.89 155.47,-80.7 z m -185.31,732.45 c 198.42,-50.91 318.73,-227.95 295.54,-446.44 -30.07,-11.33 -62.67,-17.54 -96.72,-17.54 -151.65,0 -274.59,122.94 -274.59,274.59 0,73.43 28.81,140.12 75.77,189.39 v 0" /><path
         id="path48"
         style="fill:#e4d8ef;fill-opacity:1;fill-rule:evenodd;stroke:none"
         d="m 1327.04,3678.31 h 832.47 V 2298.16 c 0,-228.93 -187.3,-416.23 -416.23,-416.23 h -0.01 c -228.92,0 -416.23,187.3 -416.23,416.23 v 1380.15" /><path
         id="path50"
         style="fill:#ffffff;fill-opacity:1;fill-rule:evenodd;stroke:none"
         d="m 1565.87,3770.43 h 0.01 c 71.31,0 129.65,-58.35 129.65,-129.65 V 2332.29 c 0,-71.3 -58.34,-129.65 -129.65,-129.65 h -0.01 c -71.29,0 -129.64,58.34 -129.64,129.65 v 1308.49 c 0,71.31 58.33,129.65 129.64,129.65" /><path
         id="path52"
         style="fill:#d74520;fill-opacity:1;fill-rule:evenodd;stroke:none"
         d="m 1743.28,4251.49 208.12,-286.6 208.11,-286.58 h -832.47 l 208.13,286.58 208.11,286.6" /><path
         id="path54"
         style="fill:#f36530;fill-opacity:1;fill-rule:evenodd;stroke:none"
         d="m 1565.88,3770.43 v 0 c 58.27,0 107.87,-38.97 124.06,-92.12 h -248.12 c 16.18,53.15 65.78,92.12 124.06,92.12" /><path
         id="path56"
         style="fill:#ffffff;fill-opacity:1;fill-rule:evenodd;stroke:none"
         d="m 1675.44,0 h 220.09 V 1782.86 H 1675.44 V 0" /><path
         id="path58"
         style="fill:#f36530;fill-opacity:1;fill-rule:evenodd;stroke:none"
         d="m 1663.96,1619.16 h 158.62 v 953.78 h -158.62 v -953.78" /><path
         id="path60"
         style="fill:#ffffff;fill-opacity:1;fill-rule:evenodd;stroke:none"
         d="m 1743.29,2956 c 151.92,0 275.82,123.89 275.82,275.82 0,151.91 -123.9,275.81 -275.82,275.81 -151.92,0 -275.82,-123.9 -275.82,-275.81 0,-151.93 123.9,-275.82 275.82,-275.82" /><path
         id="path62"
         style="fill:#272433;fill-opacity:1;fill-rule:evenodd;stroke:none"
         d="m 1743.29,3044.92 c 102.93,0 186.88,83.95 186.88,186.9 0,102.93 -83.95,186.88 -186.88,186.88 -102.93,0 -186.89,-83.95 -186.89,-186.88 0,-102.95 83.96,-186.9 186.89,-186.9" /><path
         id="path64"
         style="fill:#39344e;fill-opacity:1;fill-rule:evenodd;stroke:none"
         d="m 1743.28,3219.96 c 59.64,0 108.29,40.77 108.29,90.73 0,49.95 -48.65,90.7 -108.29,90.7 -59.64,0 -108.29,-40.75 -108.29,-90.7 0,-49.96 48.65,-90.73 108.29,-90.73" /><path
         id="path66"
         style="fill:#fcdad3;fill-opacity:1;fill-rule:nonzero;stroke:none"
         d="m 2409.3,228.02 c 0,6.539 -0.96,12.191 -2.89,16.832 -1.9,4.707 -4.55,8.32 -7.97,10.878 -3.4,2.481 -7.13,3.75 -11.27,3.75 -6.54,0 -12.07,-2.75 -16.58,-8.078 -4.5,-5.453 -6.76,-13.339 -6.76,-23.832 0,-9.859 2.26,-17.539 6.7,-22.968 4.49,-5.493 10.06,-8.262 16.64,-8.262 3.94,0 7.62,1.191 10.99,3.629 3.32,2.383 6.04,5.961 8.07,10.703 2.05,4.828 3.07,10.59 3.07,17.348 z m -46.57,36.089 v -2.968 c 4.46,5.73 9.09,10 13.91,12.66 4.81,2.687 10.29,4.058 16.39,4.058 7.3,0 14.02,-1.988 20.17,-5.918 6.16,-3.921 11,-9.652 14.57,-17.242 3.58,-7.578 5.36,-16.527 5.36,-26.879 0,-7.609 -1.02,-14.691 -3.09,-20.988 -2.05,-6.41 -4.86,-11.801 -8.48,-16.121 -3.59,-4.332 -7.87,-7.672 -12.73,-9.981 -4.92,-2.359 -10.2,-3.511 -15.8,-3.511 -6.82,0 -12.52,1.402 -17.13,4.25 -4.65,2.863 -9.01,7 -13.17,12.519 v -37.175 c 0,-10.922 -3.8,-16.352 -11.4,-16.352 -4.45,0 -7.44,1.391 -8.85,4.199 -1.46,2.809 -2.17,6.91 -2.17,12.301 v 107 c 0,4.719 0.94,8.258 2.93,10.578 1.99,2.313 4.69,3.524 8.09,3.524 3.38,0 6.11,-1.211 8.22,-3.622 2.11,-2.421 3.18,-5.863 3.18,-10.332" /><path
         id="path68"
         style="fill:#fcdad3;fill-opacity:1;fill-rule:nonzero;stroke:none"
         d="m 2513.93,191.242 v 3.129 c -2.88,-3.75 -5.86,-6.879 -9.01,-9.402 -3.12,-2.598 -6.54,-4.469 -10.25,-5.699 -3.73,-1.207 -7.97,-1.84 -12.72,-1.84 -5.72,0 -10.88,1.25 -15.43,3.691 -4.57,2.481 -8.08,5.918 -10.56,10.258 -2.97,5.293 -4.44,12.851 -4.44,22.672 v 49.14 c 0,4.93 1.08,8.661 3.23,11.098 2.14,2.441 4.98,3.691 8.51,3.691 3.6,0 6.49,-1.25 8.71,-3.75 2.19,-2.48 3.28,-6.167 3.28,-11.039 v -39.699 c 0,-5.73 0.47,-10.551 1.37,-14.422 0.96,-3.941 2.62,-6.988 5.06,-9.218 2.36,-2.2 5.64,-3.282 9.75,-3.282 4.04,0 7.81,1.25 11.3,3.711 3.58,2.457 6.18,5.711 7.78,9.688 1.35,3.543 1.99,11.191 1.99,23.07 v 30.152 c 0,4.872 1.11,8.559 3.32,11.039 2.19,2.5 5.04,3.75 8.59,3.75 3.54,0 6.39,-1.25 8.52,-3.691 2.15,-2.437 3.2,-6.168 3.2,-11.098 v -71.812 c 0,-4.707 -0.99,-8.258 -3.08,-10.609 -2.03,-2.379 -4.67,-3.528 -7.93,-3.528 -3.24,0 -5.92,1.25 -8.05,3.649 -2.11,2.48 -3.14,5.879 -3.14,10.351" /><path
         id="path70"
         style="fill:#fcdad3;fill-opacity:1;fill-rule:nonzero;stroke:none"
         d="m 2582.79,227.02 c 0,-9.86 2.15,-17.399 6.47,-22.731 4.31,-5.277 10,-7.949 17.03,-7.949 5.98,0 11.09,2.73 15.45,8.14 4.33,5.411 6.48,13.149 6.48,23.258 0,6.614 -0.9,12.211 -2.69,16.922 -1.82,4.738 -4.38,8.379 -7.66,10.942 -3.34,2.57 -7.17,3.878 -11.58,3.878 -4.57,0 -8.54,-1.308 -12.09,-3.878 -3.56,-2.563 -6.33,-6.289 -8.38,-11.18 -2.01,-4.82 -3.03,-10.621 -3.03,-17.402 z m -1.13,73.691 V 262.82 c 4.41,4.891 9,8.559 13.63,11.192 4.65,2.558 10.41,3.847 17.25,3.847 7.89,0 14.78,-1.988 20.74,-5.839 5.94,-3.957 10.59,-9.59 13.83,-16.989 3.3,-7.422 4.92,-16.211 4.92,-26.39 0,-7.52 -0.9,-14.391 -2.69,-20.68 -1.86,-6.25 -4.5,-11.66 -7.97,-16.313 -3.52,-4.566 -7.74,-8.089 -12.68,-10.679 -4.98,-2.477 -10.45,-3.75 -16.4,-3.75 -3.64,0 -7.09,0.472 -10.34,1.359 -3.22,0.902 -5.97,2.094 -8.2,3.621 -2.29,1.403 -4.2,2.992 -5.8,4.531 -1.6,1.602 -3.67,3.918 -6.29,7.09 v -2.441 c 0,-4.668 -1.09,-8.188 -3.24,-10.609 -2.13,-2.379 -4.88,-3.551 -8.15,-3.551 -3.39,0 -6.05,1.172 -8.06,3.551 -2,2.46 -2.99,5.96 -2.99,10.609 v 108.242 c 0,5 0.96,8.789 2.91,11.371 1.93,2.586 4.63,3.86 8.14,3.86 3.62,0 6.45,-1.231 8.4,-3.711 1.99,-2.422 2.99,-5.903 2.99,-10.43" /><path
         id="path72"
         style="fill:#fcdad3;fill-opacity:1;fill-rule:nonzero;stroke:none"
         d="m 2668.79,192.309 v 107.472 c 0,4.981 1.07,8.711 3.16,11.258 2.15,2.539 4.98,3.813 8.6,3.813 3.59,0 6.48,-1.25 8.69,-3.774 2.17,-2.5 3.3,-6.297 3.3,-11.297 V 192.309 c 0,-5.028 -1.13,-8.817 -3.36,-11.34 -2.21,-2.477 -5.12,-3.75 -8.63,-3.75 -3.5,0 -6.29,1.312 -8.48,3.902 -2.19,2.621 -3.28,6.328 -3.28,11.188" /><path
         id="path74"
         style="fill:#fcdad3;fill-opacity:1;fill-rule:nonzero;stroke:none"
         d="m 2740.82,263.902 v -71.593 c 0,-5 -1.17,-8.75 -3.38,-11.278 -2.28,-2.5 -5.17,-3.812 -8.61,-3.812 -3.5,0 -6.33,1.312 -8.5,3.883 -2.17,2.64 -3.26,6.347 -3.26,11.207 v 70.882 c 0,4.872 1.09,8.559 3.26,11.039 2.17,2.5 5,3.75 8.5,3.75 3.44,0 6.33,-1.25 8.61,-3.75 2.21,-2.48 3.38,-5.921 3.38,-10.328 z m -11.76,25.618 c -3.3,0 -6.11,1.062 -8.49,3.218 -2.31,2.114 -3.5,5.141 -3.5,9.012 0,3.488 1.19,6.371 3.61,8.672 2.39,2.289 5.18,3.359 8.38,3.359 3.07,0 5.82,-1.019 8.19,-3.051 2.36,-2.05 3.57,-5.101 3.57,-8.98 0,-3.828 -1.19,-6.801 -3.5,-8.93 -2.32,-2.172 -5.05,-3.3 -8.26,-3.3" /><path
         id="path76"
         style="fill:#fcdad3;fill-opacity:1;fill-rule:nonzero;stroke:none"
         d="m 2850.41,207.898 c 0,-3.07 -0.88,-6.386 -2.64,-9.878 -1.79,-3.52 -4.49,-6.84 -8.12,-10.02 -3.61,-3.172 -8.19,-5.738 -13.67,-7.66 -5.51,-1.969 -11.74,-2.91 -18.62,-2.91 -14.68,0 -26.13,4.449 -34.37,13.379 -8.22,8.933 -12.35,20.863 -12.35,35.882 0,10.161 1.88,19.18 5.63,26.969 3.77,7.781 9.26,13.852 16.37,18.09 7.11,4.289 15.66,6.422 25.54,6.422 6.18,0 11.84,-0.953 16.96,-2.813 5.13,-1.89 9.49,-4.32 13.02,-7.257 3.58,-2.973 6.29,-6.141 8.21,-9.5 1.91,-3.34 2.81,-6.481 2.81,-9.391 0,-2.93 -1.07,-5.43 -3.16,-7.52 -2.13,-2.05 -4.67,-3.089 -7.7,-3.089 -1.99,0 -3.61,0.57 -4.94,1.617 -1.27,1.043 -2.75,2.703 -4.38,5.101 -2.91,4.59 -5.93,8.071 -9.1,10.41 -3.16,2.29 -7.19,3.461 -12.01,3.461 -7.05,0 -12.71,-2.89 -16.99,-8.609 -4.3,-5.773 -6.43,-13.562 -6.43,-23.5 0,-4.652 0.57,-8.961 1.66,-12.852 1.1,-3.929 2.7,-7.23 4.77,-10 2.09,-2.761 4.59,-4.851 7.58,-6.25 2.95,-1.449 6.21,-2.148 9.7,-2.148 4.81,0 8.85,1.129 12.25,3.438 3.4,2.32 6.41,5.839 8.98,10.511 1.49,2.848 3.05,5 4.73,6.598 1.7,1.582 3.75,2.32 6.17,2.32 2.91,0 5.32,-1.109 7.25,-3.418 1.87,-2.34 2.85,-4.761 2.85,-7.383" /><path
         id="path78"
         style="fill:#fcdad3;fill-opacity:1;fill-rule:nonzero;stroke:none"
         d="m 2889.53,227.738 c 0,-6.707 1,-12.398 2.99,-17.136 2.01,-4.731 4.71,-8.25 8.18,-10.633 3.52,-2.438 7.31,-3.629 11.39,-3.629 4.2,0 8.01,1.152 11.45,3.402 3.45,2.278 6.19,5.778 8.28,10.469 2.05,4.66 3.06,10.539 3.06,17.527 0,6.641 -1.01,12.293 -3.06,17.051 -2.09,4.77 -4.85,8.383 -8.36,10.941 -3.52,2.481 -7.35,3.75 -11.51,3.75 -4.33,0 -8.22,-1.308 -11.66,-3.878 -3.4,-2.563 -6.07,-6.27 -7.95,-11.082 -1.87,-4.84 -2.81,-10.372 -2.81,-16.782 z m 46.66,-36.359 v 2.441 c -3.18,-3.828 -6.33,-6.922 -9.45,-9.281 -3.07,-2.418 -6.45,-4.219 -10.08,-5.469 -3.59,-1.211 -7.58,-1.851 -11.86,-1.851 -5.66,0 -10.95,1.273 -15.78,3.75 -4.82,2.59 -9.02,6.133 -12.56,10.781 -3.53,4.652 -6.21,10.129 -8.06,16.461 -1.84,6.269 -2.74,13.07 -2.74,20.43 0,15.468 3.64,27.601 10.88,36.25 7.27,8.648 16.8,12.968 28.62,12.968 6.83,0 12.61,-1.25 17.3,-3.75 4.69,-2.398 9.28,-6.168 13.73,-11.289 v 36.602 c 0,5.078 0.98,8.93 2.93,11.527 1.93,2.59 4.67,3.903 8.28,3.903 3.6,0 6.35,-1.211 8.32,-3.571 1.94,-2.379 2.93,-5.922 2.93,-10.57 V 191.379 c 0,-4.707 -1.05,-8.258 -3.14,-10.609 -2.09,-2.379 -4.79,-3.551 -8.11,-3.551 -3.2,0 -5.92,1.23 -8.04,3.672 -2.11,2.441 -3.17,5.922 -3.17,10.488" /><path
         id="path80"
         style="fill:#fcdad3;fill-opacity:1;fill-rule:nonzero;stroke:none"
         d="m 3047.54,227.551 c 0,10.078 -2.15,17.969 -6.41,23.59 -4.25,5.589 -10,8.441 -17.17,8.441 -4.66,0 -8.73,-1.273 -12.28,-3.773 -3.52,-2.539 -6.25,-6.25 -8.16,-11.149 -1.92,-4.871 -2.88,-10.551 -2.88,-17.109 0,-6.492 0.96,-12.129 2.84,-16.949 1.87,-4.852 4.57,-8.563 8.1,-11.141 3.48,-2.563 7.66,-3.832 12.38,-3.832 7.17,0 12.92,2.82 17.17,8.48 4.26,5.633 6.41,13.481 6.41,23.442 z m 23.83,0 c 0,-7.34 -1.12,-14.16 -3.3,-20.43 -2.21,-6.172 -5.39,-11.558 -9.55,-16.043 -4.2,-4.488 -9.18,-7.848 -14.98,-10.308 -5.81,-2.379 -12.37,-3.551 -19.58,-3.551 -7.18,0 -13.65,1.172 -19.39,3.633 -5.74,2.398 -10.72,5.878 -14.94,10.39 -4.18,4.508 -7.36,9.797 -9.57,15.938 -2.17,6.191 -3.24,12.949 -3.24,20.41 0,7.5 1.11,14.351 3.3,20.582 2.2,6.25 5.35,11.547 9.47,16 4.12,4.406 9.1,7.808 14.98,10.199 5.88,2.379 12.31,3.609 19.39,3.609 7.19,0 13.74,-1.23 19.58,-3.648 5.84,-2.41 10.85,-5.883 15.03,-10.371 4.18,-4.481 7.35,-9.813 9.5,-16 2.22,-6.148 3.3,-12.969 3.3,-20.41" /><path
         id="path82"
         style="fill:#fcdad3;fill-opacity:1;fill-rule:nonzero;stroke:none"
         d="m 3171.66,248.02 c -1.78,-4.2 -2.64,-11.579 -2.64,-22.231 v -32.93 c 0,-5.168 -1.11,-9.117 -3.39,-11.738 -2.25,-2.59 -5.26,-3.902 -8.97,-3.902 -3.57,0 -6.48,1.312 -8.69,3.902 -2.25,2.621 -3.34,6.57 -3.34,11.738 v 39.532 c 0,6.211 -0.24,11.039 -0.65,14.531 -0.41,3.418 -1.5,6.269 -3.3,8.5 -1.75,2.207 -4.63,3.32 -8.49,3.32 -7.76,0 -12.85,-2.793 -15.35,-8.402 -2.48,-5.551 -3.68,-13.551 -3.68,-23.961 v -33.52 c 0,-5.148 -1.13,-9.078 -3.34,-11.66 -2.24,-2.668 -5.19,-3.98 -8.8,-3.98 -3.62,0 -6.61,1.312 -8.87,3.98 -2.31,2.582 -3.4,6.512 -3.4,11.641 v 70.941 c 0,4.668 0.98,8.199 3.03,10.598 2.09,2.434 4.78,3.684 8.16,3.684 3.24,0 5.96,-1.141 8.13,-3.403 2.16,-2.289 3.26,-5.41 3.26,-9.422 v -2.34 c 4.1,5.165 8.51,8.934 13.2,11.332 4.69,2.418 9.96,3.629 15.67,3.629 5.95,0 11.05,-1.25 15.35,-3.75 4.31,-2.437 7.83,-6.211 10.6,-11.211 4.01,5.043 8.3,8.852 12.89,11.293 4.59,2.457 9.65,3.668 15.2,3.668 6.54,0 12.11,-1.289 16.8,-4 4.7,-2.66 8.2,-6.449 10.52,-11.429 2.05,-4.489 3.05,-11.52 3.05,-21.168 v -48.403 c 0,-5.168 -1.13,-9.117 -3.36,-11.738 -2.3,-2.59 -5.27,-3.902 -8.98,-3.902 -3.6,0 -6.55,1.312 -8.81,3.98 -2.33,2.582 -3.48,6.512 -3.48,11.66 v 41.7 c 0,5.332 -0.21,9.589 -0.64,12.793 -0.43,3.269 -1.61,5.918 -3.54,8.089 -1.89,2.188 -4.82,3.301 -8.67,3.301 -3.13,0 -6.11,-0.98 -8.89,-2.871 -2.87,-1.969 -5,-4.57 -6.58,-7.851 v 0" /><path
         id="path84"
         style="fill:#fcdad3;fill-opacity:1;fill-rule:nonzero;stroke:none"
         d="m 3306.11,227.082 c -3.49,-1.352 -8.55,-2.73 -15.19,-4.242 -6.62,-1.481 -11.23,-2.559 -13.79,-3.281 -2.56,-0.7 -4.98,-2.047 -7.29,-4.059 -2.34,-2.09 -3.49,-4.898 -3.49,-8.539 0,-3.789 1.36,-6.969 4.08,-9.59 2.73,-2.652 6.31,-3.961 10.72,-3.961 4.69,0 9.05,1.09 12.99,3.262 3.99,2.109 6.9,4.918 8.73,8.297 2.15,3.75 3.24,9.902 3.24,18.57 z m 1.57,-35.902 c -5.77,-4.668 -11.31,-8.141 -16.68,-10.45 -5.34,-2.359 -11.37,-3.511 -18.01,-3.511 -6.13,0 -11.45,1.273 -16.08,3.75 -4.62,2.523 -8.16,5.929 -10.66,10.273 -2.48,4.278 -3.75,8.91 -3.75,13.949 0,6.789 2.11,12.547 6.21,17.34 4.08,4.75 9.75,7.969 16.92,9.61 1.52,0.371 5.27,1.148 11.23,2.418 6.01,1.312 11.09,2.461 15.39,3.504 4.23,1.046 8.88,2.335 13.86,3.835 -0.31,6.571 -1.56,11.372 -3.77,14.481 -2.24,3.019 -6.91,4.531 -13.88,4.531 -6.06,0 -10.57,-0.859 -13.66,-2.621 -3.02,-1.738 -5.64,-4.387 -7.79,-7.949 -2.21,-3.488 -3.71,-5.801 -4.61,-6.93 -0.92,-1.129 -2.85,-1.64 -5.78,-1.64 -2.69,0 -4.98,0.882 -6.89,2.628 -1.98,1.801 -2.95,4.071 -2.95,6.903 0,4.347 1.48,8.609 4.43,12.66 2.97,4.141 7.58,7.508 13.83,10.23 6.27,2.661 14.08,3.981 23.42,3.981 10.41,0 18.63,-1.32 24.63,-3.883 5.95,-2.539 10.15,-6.578 12.61,-12.207 2.48,-5.531 3.73,-12.934 3.73,-22.133 0,-5.801 0,-10.777 -0.05,-14.797 -0.06,-4.093 -0.06,-8.601 -0.14,-13.543 0,-4.648 0.74,-9.527 2.22,-14.55 1.45,-5.059 2.19,-8.317 2.19,-9.75 0,-2.547 -1.17,-4.879 -3.44,-6.969 -2.24,-2.07 -4.84,-3.121 -7.75,-3.121 -2.44,0 -4.82,1.172 -7.25,3.551 -2.34,2.421 -4.88,5.902 -7.53,10.41" /><path
         id="path86"
         style="fill:#fcdad3;fill-opacity:1;fill-rule:nonzero;stroke:none"
         d="m 3377.3,263.902 v -71.593 c 0,-5 -1.13,-8.75 -3.37,-11.278 -2.27,-2.5 -5.14,-3.812 -8.62,-3.812 -3.47,0 -6.35,1.312 -8.49,3.883 -2.19,2.64 -3.27,6.347 -3.27,11.207 v 70.882 c 0,4.872 1.08,8.559 3.27,11.039 2.14,2.5 5.02,3.75 8.49,3.75 3.48,0 6.35,-1.25 8.62,-3.75 2.24,-2.48 3.37,-5.921 3.37,-10.328 z m -11.75,25.618 c -3.28,0 -6.1,1.062 -8.46,3.218 -2.34,2.114 -3.54,5.141 -3.54,9.012 0,3.488 1.22,6.371 3.64,8.672 2.38,2.289 5.19,3.359 8.36,3.359 3.06,0 5.84,-1.019 8.22,-3.051 2.34,-2.05 3.53,-5.101 3.53,-8.98 0,-3.828 -1.15,-6.801 -3.45,-8.93 -2.35,-2.172 -5.12,-3.3 -8.3,-3.3" /><path
         id="path88"
         style="fill:#fcdad3;fill-opacity:1;fill-rule:nonzero;stroke:none"
         d="m 3423.44,264.25 v -2.949 c 4.14,5.719 8.73,9.941 13.65,12.64 4.98,2.668 10.66,4.039 17.15,4.039 6.23,0 11.82,-1.41 16.79,-4.3 4.88,-2.828 8.59,-6.809 11.01,-12.008 1.56,-3.07 2.56,-6.352 3.05,-9.84 0.43,-3.5 0.7,-7.973 0.7,-13.422 v -46.101 c 0,-5 -1.13,-8.75 -3.28,-11.278 -2.17,-2.5 -5.02,-3.812 -8.48,-3.812 -3.51,0 -6.4,1.312 -8.53,3.902 -2.23,2.621 -3.35,6.328 -3.35,11.188 v 41.25 c 0,8.23 -1.06,14.461 -3.22,18.769 -2.23,4.344 -6.57,6.512 -13.07,6.512 -4.22,0 -8.07,-1.309 -11.56,-3.969 -3.48,-2.59 -6.02,-6.23 -7.64,-10.84 -1.15,-3.691 -1.76,-10.562 -1.76,-20.742 v -30.98 c 0,-5.028 -1.11,-8.817 -3.36,-11.34 -2.24,-2.477 -5.11,-3.75 -8.63,-3.75 -3.42,0 -6.25,1.312 -8.44,3.883 -2.22,2.64 -3.32,6.347 -3.32,11.207 v 71.593 c 0,4.719 0.98,8.219 2.97,10.559 1.95,2.352 4.69,3.519 8.09,3.519 2.07,0 3.98,-0.55 5.62,-1.558 1.74,-1 3.05,-2.602 4.06,-4.59 1,-2.113 1.55,-4.613 1.55,-7.582" /><path
         id="path90"
         style="fill:#fcdad3;fill-opacity:1;fill-rule:nonzero;stroke:none"
         d="m 3523.89,262.551 19.18,-56.27 20.7,58.731 c 1.66,4.707 3.24,8.027 4.82,10.019 1.61,1.93 3.95,2.949 7.13,2.949 3.03,0 5.59,-1.058 7.76,-3.218 2.07,-2.09 3.14,-4.524 3.14,-7.352 0,-1.09 -0.21,-2.34 -0.58,-3.75 -0.36,-1.48 -0.79,-2.851 -1.29,-4.14 -0.51,-1.231 -1.02,-2.707 -1.7,-4.329 l -22.82,-58.992 c -0.64,-1.699 -1.48,-3.871 -2.48,-6.48 -1.03,-2.578 -2.16,-4.77 -3.39,-6.68 -1.27,-1.82 -2.8,-3.23 -4.59,-4.258 -1.86,-1.043 -4.09,-1.562 -6.7,-1.562 -3.36,0 -6.04,0.801 -8.05,2.383 -2.01,1.617 -3.5,3.359 -4.43,5.289 -0.94,1.879 -2.58,5.672 -4.83,11.308 l -22.63,58.34 c -0.52,1.453 -1.07,2.91 -1.64,4.363 -0.52,1.438 -0.95,2.911 -1.36,4.43 -0.35,1.559 -0.57,2.848 -0.57,3.887 0,1.742 0.49,3.402 1.5,5.07 0.98,1.672 2.37,3.051 4.08,4.09 1.75,1.051 3.61,1.601 5.66,1.601 3.93,0 6.64,-1.167 8.13,-3.601 1.48,-2.32 3.14,-6.277 4.96,-11.828" /><path
         id="path92"
         style="fill:#fcdad3;fill-opacity:1;fill-rule:nonzero;stroke:none"
         d="m 3621.04,235.629 h 43.04 c -0.56,8.441 -2.73,14.793 -6.56,18.973 -3.81,4.199 -8.81,6.308 -15.02,6.308 -5.88,0 -10.76,-2.129 -14.53,-6.39 -3.81,-4.239 -6.08,-10.559 -6.93,-18.891 z m 46.46,-14.098 h -46.46 c 0.01,-5.66 1.15,-10.582 3.22,-14.922 2.17,-4.257 4.96,-7.5 8.45,-9.711 3.52,-2.179 7.41,-3.238 11.65,-3.238 2.83,0 5.44,0.328 7.77,1 2.34,0.738 4.63,1.809 6.85,3.301 2.17,1.48 4.18,3.031 6.06,4.777 1.84,1.684 4.32,3.953 7.21,6.883 1.25,1.129 2.98,1.641 5.23,1.641 2.46,0 4.41,-0.66 5.92,-2.09 1.52,-1.41 2.24,-3.34 2.24,-5.883 0,-2.25 -0.82,-4.859 -2.51,-7.891 -1.68,-2.949 -4.17,-5.839 -7.62,-8.628 -3.4,-2.739 -7.66,-4.981 -12.8,-6.84 -5.09,-1.809 -10.97,-2.711 -17.69,-2.711 -15.23,0 -27.11,4.57 -35.55,13.613 -8.43,9.117 -12.67,21.41 -12.67,36.906 0,7.414 1.07,14.16 3.12,20.41 2.09,6.274 5.12,11.641 9.12,16.102 4.01,4.512 8.91,7.969 14.79,10.332 5.88,2.379 12.34,3.59 19.51,3.59 9.22,0 17.19,-2.051 23.83,-6.152 6.66,-4.079 11.62,-9.329 14.92,-15.778 3.32,-6.523 4.96,-13.094 4.96,-19.84 0,-6.211 -1.66,-10.261 -5.12,-12.07 -3.45,-1.902 -8.22,-2.801 -14.43,-2.801" /><path
         id="path94"
         style="fill:#fcdad3;fill-opacity:1;fill-rule:nonzero;stroke:none"
         d="m 3792.25,207.898 c 0,-3.07 -0.88,-6.386 -2.68,-9.878 -1.78,-3.52 -4.43,-6.84 -8.09,-10.02 -3.61,-3.172 -8.2,-5.738 -13.73,-7.66 -5.48,-1.969 -11.71,-2.91 -18.57,-2.91 -14.71,0 -26.15,4.449 -34.38,13.379 -8.2,8.933 -12.36,20.863 -12.36,35.882 0,10.161 1.88,19.18 5.69,26.969 3.76,7.781 9.17,13.852 16.32,18.09 7.11,4.289 15.67,6.422 25.59,6.422 6.15,0 11.76,-0.953 16.93,-2.813 5.12,-1.89 9.44,-4.32 13.05,-7.257 3.57,-2.973 6.27,-6.141 8.18,-9.5 1.86,-3.34 2.82,-6.481 2.82,-9.391 0,-2.93 -1.04,-5.43 -3.23,-7.52 -2.09,-2.05 -4.65,-3.089 -7.65,-3.089 -2,0 -3.62,0.57 -4.89,1.617 -1.34,1.043 -2.79,2.703 -4.45,5.101 -2.89,4.59 -5.9,8.071 -9.06,10.41 -3.17,2.29 -7.19,3.461 -12.07,3.461 -6.97,0 -12.66,-2.89 -16.94,-8.609 -4.31,-5.773 -6.44,-13.562 -6.44,-23.5 0,-4.652 0.59,-8.961 1.64,-12.852 1.11,-3.929 2.71,-7.23 4.8,-10 2.09,-2.761 4.63,-4.851 7.58,-6.25 2.91,-1.449 6.17,-2.148 9.73,-2.148 4.75,0 8.85,1.129 12.23,3.438 3.37,2.32 6.4,5.839 9.02,10.511 1.44,2.848 2.99,5 4.69,6.598 1.66,1.582 3.71,2.32 6.17,2.32 2.87,0 5.31,-1.109 7.17,-3.418 1.95,-2.34 2.93,-4.761 2.93,-7.383" /><path
         id="path96"
         style="fill:#fcdad3;fill-opacity:1;fill-rule:nonzero;stroke:none"
         d="m 3814.3,275.871 h 2.61 v 14.918 c 0,3.953 0.1,7.133 0.32,9.383 0.19,2.277 0.72,4.199 1.7,5.84 0.89,1.679 2.24,3.078 4,4.14 1.72,1.047 3.65,1.539 5.8,1.539 3.01,0 5.74,-1.171 8.16,-3.5 1.61,-1.601 2.66,-3.492 3.09,-5.742 0.45,-2.277 0.65,-5.551 0.65,-9.711 v -16.867 h 8.73 c 3.35,0 5.93,-0.82 7.69,-2.5 1.8,-1.66 2.66,-3.769 2.66,-6.371 0,-3.34 -1.25,-5.699 -3.81,-7.008 -2.5,-1.312 -6.11,-1.972 -10.82,-1.972 h -4.45 v -45.649 c 0,-3.879 0.13,-6.871 0.39,-8.98 0.29,-2.11 1.03,-3.789 2.14,-5.059 1.1,-1.332 2.93,-1.992 5.51,-1.992 1.39,0 3.26,0.25 5.67,0.781 2.32,0.508 4.18,0.758 5.54,0.758 1.9,0 3.67,-0.82 5.18,-2.359 1.5,-1.641 2.3,-3.579 2.3,-5.961 0,-3.977 -2.05,-7.028 -6.25,-9.18 -4.22,-2.109 -10.19,-3.16 -18,-3.16 -7.43,0 -13.07,1.312 -16.9,3.902 -3.81,2.621 -6.35,6.188 -7.5,10.84 -1.21,4.609 -1.8,10.73 -1.8,18.418 v 47.641 h -3.16 c -3.36,0 -5.98,0.82 -7.79,2.543 -1.82,1.679 -2.7,3.816 -2.7,6.437 0,2.602 0.94,4.711 2.79,6.371 1.92,1.68 4.65,2.5 8.25,2.5" /><path
         id="path98"
         style="fill:#fcdad3;fill-opacity:1;fill-rule:nonzero;stroke:none"
         d="m 3941.07,227.551 c 0,10.078 -2.14,17.969 -6.38,23.59 -4.3,5.589 -9.98,8.441 -17.19,8.441 -4.65,0 -8.73,-1.273 -12.27,-3.773 -3.55,-2.539 -6.27,-6.25 -8.16,-11.149 -1.91,-4.871 -2.89,-10.551 -2.89,-17.109 0,-6.492 0.98,-12.129 2.85,-16.949 1.88,-4.852 4.55,-8.563 8.07,-11.141 3.49,-2.563 7.61,-3.832 12.4,-3.832 7.21,0 12.89,2.82 17.19,8.48 4.24,5.633 6.38,13.481 6.38,23.442 z m 23.83,0 c 0,-7.34 -1.09,-14.16 -3.32,-20.43 -2.19,-6.172 -5.39,-11.558 -9.55,-16.043 -4.18,-4.488 -9.18,-7.848 -14.96,-10.308 -5.8,-2.379 -12.28,-3.551 -19.57,-3.551 -7.23,0 -13.69,1.172 -19.41,3.633 -5.73,2.398 -10.73,5.878 -14.91,10.39 -4.2,4.508 -7.4,9.797 -9.55,15.938 -2.17,6.191 -3.24,12.949 -3.24,20.41 0,7.5 1.07,14.351 3.24,20.582 2.27,6.25 5.37,11.547 9.5,16 4.14,4.406 9.12,7.808 14.96,10.199 5.91,2.379 12.36,3.609 19.41,3.609 7.21,0 13.69,-1.23 19.57,-3.648 5.86,-2.41 10.86,-5.883 15.04,-10.371 4.14,-4.481 7.38,-9.813 9.53,-16 2.17,-6.148 3.26,-12.969 3.26,-20.41" /><path
         id="path100"
         style="fill:#fcdad3;fill-opacity:1;fill-rule:nonzero;stroke:none"
         d="m 4007.21,212.941 v -20.632 c 0,-5.028 -1.14,-8.817 -3.4,-11.34 -2.27,-2.477 -5.14,-3.75 -8.63,-3.75 -3.4,0 -6.23,1.312 -8.42,3.812 -2.21,2.528 -3.28,6.278 -3.28,11.278 v 68.972 c 0,11.149 3.82,16.699 11.54,16.699 3.91,0 6.78,-1.332 8.53,-3.91 1.72,-2.601 2.64,-6.461 2.88,-11.519 2.83,5.058 5.76,8.918 8.75,11.519 2.98,2.578 6.95,3.91 11.91,3.91 5.04,0 9.84,-1.332 14.57,-3.91 4.67,-2.601 7.05,-6.05 7.05,-10.351 0,-3.028 -1.03,-5.547 -3.03,-7.477 -1.97,-1.953 -4.14,-2.972 -6.48,-2.972 -0.86,0 -2.97,0.57 -6.31,1.699 -3.34,1.109 -6.29,1.703 -8.85,1.703 -3.45,0 -6.29,-0.942 -8.47,-2.891 -2.21,-1.929 -3.93,-4.73 -5.16,-8.48 -1.21,-3.77 -2.09,-8.219 -2.52,-13.422 -0.45,-5.129 -0.68,-11.438 -0.68,-18.938" /><path
         id="path102"
         style="fill:#fcdad3;fill-opacity:1;fill-rule:nonzero;stroke:none"
         d="m 4133.69,209.602 c 0,-6.864 -1.6,-12.704 -4.82,-17.582 -3.21,-4.879 -7.91,-8.528 -14.14,-11.071 -6.25,-2.457 -13.81,-3.73 -22.8,-3.73 -8.45,0 -15.8,1.359 -21.91,4.101 -6.07,2.711 -10.59,6.11 -13.46,10.168 -2.93,4.075 -4.41,8.172 -4.41,12.274 0,2.726 0.96,5.078 2.85,6.988 1.84,1.969 4.2,2.91 7.01,2.91 2.5,0 4.44,-0.64 5.76,-1.89 1.35,-1.329 2.58,-3.09 3.83,-5.368 2.44,-4.441 5.33,-7.742 8.77,-9.933 3.34,-2.199 7.99,-3.258 13.89,-3.258 4.72,0 8.63,1.121 11.68,3.32 3.02,2.211 4.61,4.731 4.61,7.578 0,4.383 -1.62,7.563 -4.75,9.532 -3.2,2.05 -8.38,3.949 -15.64,5.738 -8.17,2.133 -14.83,4.363 -19.96,6.66 -5.14,2.352 -9.3,5.449 -12.35,9.242 -3.06,3.77 -4.63,8.5 -4.63,14.071 0,4.98 1.43,9.679 4.28,14.058 2.83,4.43 7.07,7.949 12.6,10.602 5.53,2.636 12.2,3.968 20.06,3.968 6.13,0 11.66,-0.691 16.58,-2.011 4.88,-1.309 9.02,-3.129 12.24,-5.348 3.29,-2.25 5.81,-4.711 7.5,-7.43 1.74,-2.75 2.58,-5.41 2.58,-8 0,-2.863 -0.9,-5.14 -2.75,-7.019 -1.84,-1.75 -4.45,-2.672 -7.77,-2.672 -2.47,0 -4.52,0.699 -6.25,2.191 -1.68,1.438 -3.68,3.61 -5.86,6.481 -1.8,2.418 -3.91,4.367 -6.37,5.82 -2.44,1.449 -5.74,2.188 -9.9,2.188 -4.3,0 -7.89,-0.961 -10.69,-2.867 -2.85,-1.903 -4.29,-4.282 -4.29,-7.133 0,-2.621 1.05,-4.75 3.12,-6.41 2.11,-1.661 4.9,-3.051 8.46,-4.141 3.55,-1.09 8.42,-2.457 14.63,-4 7.36,-1.859 13.38,-4.098 18.04,-6.719 4.67,-2.578 8.21,-5.648 10.61,-9.199 2.44,-3.582 3.65,-7.602 3.65,-12.109" /><path
         id="path104"
         style="fill:#fcdad3;fill-opacity:1;fill-rule:nonzero;stroke:none"
         d="m 4160.64,177.219 c -3.59,0 -6.69,1.172 -9.27,3.633 -2.66,2.398 -3.95,5.82 -3.95,10.14 0,3.668 1.23,6.867 3.69,9.528 2.5,2.652 5.61,3.96 9.26,3.96 3.63,0 6.76,-1.308 9.28,-3.941 2.62,-2.578 3.92,-5.82 3.92,-9.547 0,-4.281 -1.3,-7.66 -3.92,-10.101 -2.52,-2.442 -5.53,-3.672 -9.01,-3.672" /><path
         id="path106"
         style="fill:#fcdad3;fill-opacity:1;fill-rule:nonzero;stroke:none"
         d="m 4265.64,227.551 c 0,10.078 -2.14,17.969 -6.4,23.59 -4.26,5.589 -9.96,8.441 -17.15,8.441 -4.65,0 -8.69,-1.273 -12.25,-3.773 -3.55,-2.539 -6.27,-6.25 -8.16,-11.149 -1.89,-4.871 -2.87,-10.551 -2.87,-17.109 0,-6.492 0.92,-12.129 2.79,-16.949 1.94,-4.852 4.61,-8.563 8.13,-11.141 3.49,-2.563 7.61,-3.832 12.36,-3.832 7.19,0 12.89,2.82 17.15,8.48 4.26,5.633 6.4,13.481 6.4,23.442 z m 23.87,0 c 0,-7.34 -1.09,-14.16 -3.34,-20.43 -2.21,-6.172 -5.37,-11.558 -9.55,-16.043 -4.2,-4.488 -9.12,-7.848 -14.96,-10.308 -5.78,-2.379 -12.3,-3.551 -19.57,-3.551 -7.19,0 -13.65,1.172 -19.39,3.633 -5.75,2.398 -10.69,5.878 -14.89,10.39 -4.26,4.508 -7.42,9.797 -9.63,15.938 -2.13,6.191 -3.22,12.949 -3.22,20.41 0,7.5 1.09,14.351 3.3,20.582 2.25,6.25 5.35,11.547 9.45,16 4.13,4.406 9.13,7.808 14.99,10.199 5.85,2.379 12.28,3.609 19.39,3.609 7.19,0 13.71,-1.23 19.57,-3.648 5.88,-2.41 10.88,-5.883 15.06,-10.371 4.16,-4.481 7.32,-9.813 9.53,-16 2.17,-6.148 3.26,-12.969 3.26,-20.41" /><path
         id="path108"
         style="fill:#fcdad3;fill-opacity:1;fill-rule:nonzero;stroke:none"
         d="m 4331.8,212.941 v -20.632 c 0,-5.028 -1.14,-8.817 -3.38,-11.34 -2.25,-2.477 -5.14,-3.75 -8.6,-3.75 -3.47,0 -6.25,1.312 -8.47,3.812 -2.21,2.528 -3.3,6.278 -3.3,11.278 v 68.972 c 0,11.149 3.9,16.699 11.58,16.699 3.94,0 6.76,-1.332 8.5,-3.91 1.71,-2.601 2.73,-6.461 2.92,-11.519 2.8,5.058 5.71,8.918 8.7,11.519 2.98,2.578 6.99,3.91 11.93,3.91 5.06,0 9.9,-1.332 14.55,-3.91 4.71,-2.601 7.07,-6.05 7.07,-10.351 0,-3.028 -1.01,-5.547 -2.99,-7.477 -2.03,-1.953 -4.16,-2.972 -6.52,-2.972 -0.84,0 -2.93,0.57 -6.27,1.699 -3.34,1.109 -6.29,1.703 -8.87,1.703 -3.45,0 -6.27,-0.942 -8.53,-2.891 -2.17,-1.929 -3.89,-4.73 -5.12,-8.48 -1.19,-3.77 -2.05,-8.219 -2.5,-13.422 -0.45,-5.129 -0.7,-11.438 -0.7,-18.938" /><path
         id="path110"
         style="fill:#fcdad3;fill-opacity:1;fill-rule:nonzero;stroke:none"
         d="m 4400.35,228.41 c 0,-10.019 2.11,-17.64 6.33,-22.789 4.18,-5.121 9.65,-7.742 16.27,-7.742 3.93,0 7.69,1.152 11.19,3.363 3.52,2.227 6.37,5.528 8.59,9.977 2.21,4.472 3.29,9.84 3.29,16.191 0,10.102 -2.15,17.949 -6.41,23.582 -4.24,5.68 -9.86,8.488 -16.8,8.488 -6.76,0 -12.22,-2.75 -16.29,-8.078 -4.12,-5.433 -6.17,-13.05 -6.17,-22.992 z m 68.83,31.418 V 187.82 c 0,-8.238 -0.9,-15.328 -2.54,-21.23 -1.68,-5.961 -4.39,-10.86 -8.09,-14.719 -3.71,-3.871 -8.59,-6.719 -14.55,-8.621 -6.01,-1.828 -13.49,-2.789 -22.4,-2.789 -8.2,0 -15.53,1.148 -21.93,3.551 -6.45,2.449 -11.41,5.488 -14.88,9.297 -3.48,3.75 -5.24,7.64 -5.24,11.66 0,3.031 0.98,5.492 2.99,7.383 1.95,1.961 4.34,2.886 7.11,2.886 3.49,0 6.5,-1.617 9.16,-4.797 1.27,-1.679 2.62,-3.32 3.94,-4.961 1.35,-1.679 2.86,-3.128 4.52,-4.281 1.66,-1.207 3.67,-2.07 5.99,-2.66 2.27,-0.578 4.96,-0.848 7.99,-0.848 6.11,0 10.94,0.887 14.3,2.668 3.4,1.782 5.78,4.282 7.16,7.481 1.31,3.199 2.17,6.621 2.31,10.289 0.29,3.723 0.45,9.582 0.61,17.703 -3.66,-5.312 -7.93,-9.371 -12.68,-12.152 -4.77,-2.789 -10.49,-4.141 -17.05,-4.141 -8.01,0 -14.96,2.07 -20.86,6.332 -5.98,4.238 -10.55,10.141 -13.73,17.809 -3.15,7.582 -4.79,16.39 -4.79,26.39 0,7.481 0.96,14.219 2.95,20.211 1.9,5.961 4.65,11.02 8.3,15.141 3.56,4.117 7.74,7.23 12.43,9.32 4.72,2.071 9.82,3.117 15.48,3.117 6.7,0 12.54,-1.371 17.46,-4.058 4.99,-2.66 9.52,-6.93 13.75,-12.66 v 3.32 c 0,4.34 1.06,7.621 3.05,10.059 2.03,2.332 4.65,3.543 7.81,3.543 4.61,0 7.66,-1.575 9.18,-4.692 1.49,-3.133 2.25,-7.66 2.25,-13.543" /><path
         id="path112"
         style="fill:#fcdad3;fill-opacity:1;fill-rule:nonzero;stroke:none"
         d="m 3440,501.148 h 35.22 c -2.5,-18.996 -10.27,-33.828 -23.21,-44.488 -11.97,-10.43 -26.48,-15.59 -43.44,-15.59 -22.98,0 -41.36,8.071 -55.05,24.2 -13.01,15.339 -19.5,35.14 -19.5,59.339 0,24.782 6.45,44.61 19.32,59.61 12.81,14.941 31.02,22.461 54.47,22.461 17.46,0 32.23,-4.731 44.2,-14.098 12.71,-10.121 20.46,-24.344 23.21,-42.582 H 3440 c -3.03,15.902 -12.75,23.832 -29.28,23.832 -27.2,0 -40.88,-16.133 -40.88,-48.402 0,-15.121 3.54,-27.461 10.53,-37.09 7.01,-9.649 16.88,-14.469 29.63,-14.469 18.96,0 28.98,9.098 30,27.277 z m -138.67,22.211 c 0,-31.519 10,-58.199 29.98,-79.918 19.98,-21.761 44.43,-32.652 73.46,-32.652 28.92,0 53.39,10.891 73.35,32.652 20,21.719 29.93,48.399 29.93,79.918 0,31.5 -9.93,58.161 -29.93,79.922 -19.96,21.758 -44.43,32.641 -73.35,32.641 -29.03,0 -53.48,-10.883 -73.46,-32.641 -19.98,-21.761 -29.98,-48.422 -29.98,-79.922 z m -35.76,0 c 0,40.121 13.57,74.34 40.74,102.789 27.19,28.383 60.02,42.582 98.46,42.582 38.37,0 71.14,-14.199 98.36,-42.582 27.18,-28.449 40.8,-62.668 40.8,-102.789 0,-40.14 -13.62,-74.41 -40.8,-102.789 -27.22,-28.429 -59.99,-42.629 -98.36,-42.629 -38.44,0 -71.27,14.2 -98.46,42.629 -27.17,28.379 -40.74,62.649 -40.74,102.789" /><path
         id="path114"
         style="fill:#fcdad3;fill-opacity:1;fill-rule:nonzero;stroke:none"
         d="m 3321.88,432.191 20.29,-17.222 149.3,191.691 -20.29,17.192 -149.3,-191.661" /></g></g></svg>