<?xml version="1.0" encoding="UTF-8" standalone="no"?>
<!-- Created with Inkscape (http://www.inkscape.org/) -->

<svg
   width="100"
   height="10"
   viewBox="0 0 26.458333 2.6458332"
   version="1.1"
   id="svg5"
   inkscape:version="1.2 (dc2aedaf03, 2022-05-15)"
   sodipodi:docname="title.svg"
   xml:space="preserve"
   inkscape:export-filename="../../static/images/logo.svg"
   inkscape:export-xdpi="1536"
   inkscape:export-ydpi="1536"
   xmlns:inkscape="http://www.inkscape.org/namespaces/inkscape"
   xmlns:sodipodi="http://sodipodi.sourceforge.net/DTD/sodipodi-0.dtd"
   xmlns:xlink="http://www.w3.org/1999/xlink"
   xmlns="http://www.w3.org/2000/svg"
   xmlns:svg="http://www.w3.org/2000/svg"><sodipodi:namedview
     id="namedview7"
     pagecolor="#919191"
     bordercolor="#ffffff"
     borderopacity="1"
     inkscape:pageshadow="0"
     inkscape:pageopacity="1"
     inkscape:pagecheckerboard="false"
     inkscape:document-units="px"
     showgrid="true"
     units="px"
     width="1080px"
     inkscape:zoom="43.289973"
     inkscape:cx="5.0127081"
     inkscape:cy="7.9002128"
     inkscape:window-width="1920"
     inkscape:window-height="1053"
     inkscape:window-x="0"
     inkscape:window-y="27"
     inkscape:window-maximized="1"
     inkscape:current-layer="layer1"
     inkscape:snap-bbox="false"
     inkscape:bbox-paths="true"
     inkscape:bbox-nodes="true"
     inkscape:snap-bbox-edge-midpoints="true"
     inkscape:snap-bbox-midpoints="true"
     showguides="false"
     inkscape:object-nodes="false"
     inkscape:snap-nodes="true"
     inkscape:object-paths="true"
     inkscape:snap-intersection-paths="true"
     inkscape:snap-smooth-nodes="false"
     inkscape:snap-midpoints="false"
     inkscape:snap-global="true"
     inkscape:showpageshadow="0"
     inkscape:deskcolor="#919191"><inkscape:grid
       type="xygrid"
       id="grid120"
       empspacing="4"
       spacingx="0.13229166"
       spacingy="0.13229166"
       originx="0"
       originy="0" /></sodipodi:namedview><defs
     id="defs2"><linearGradient
       id="linearGradient860"
       inkscape:swatch="gradient"><stop
         style="stop-color:#000000;stop-opacity:1;"
         offset="0"
         id="stop856" /><stop
         style="stop-color:#000000;stop-opacity:0;"
         offset="1"
         id="stop858" /></linearGradient><linearGradient
       id="linearGradient8613"
       inkscape:swatch="solid"><stop
         style="stop-color:#000000;stop-opacity:1;"
         offset="0"
         id="stop8611" /></linearGradient><linearGradient
       id="linearGradient6922"
       inkscape:swatch="gradient"><stop
         style="stop-color:#ff2f57;stop-opacity:1;"
         offset="0"
         id="stop6918" /><stop
         style="stop-color:#ff9557;stop-opacity:1;"
         offset="1"
         id="stop6920" /></linearGradient><inkscape:path-effect
       effect="powerstroke"
       id="path-effect6913"
       is_visible="true"
       lpeversion="1"
       offset_points="0,0"
       not_jump="false"
       sort_points="true"
       interpolator_type="CubicBezierJohan"
       interpolator_beta="0.2"
       start_linecap_type="zerowidth"
       linejoin_type="extrp_arc"
       miter_limit="4"
       scale_width="1"
       end_linecap_type="zerowidth" /><inkscape:path-effect
       effect="spiro"
       id="path-effect5680"
       is_visible="true"
       lpeversion="1" /><inkscape:path-effect
       effect="powerstroke"
       id="path-effect5692"
       is_visible="true"
       lpeversion="1"
       offset_points="0,4.99214"
       not_jump="false"
       sort_points="true"
       interpolator_type="CubicBezierJohan"
       interpolator_beta="0.2"
       start_linecap_type="zerowidth"
       linejoin_type="extrp_arc"
       miter_limit="4"
       scale_width="1"
       end_linecap_type="zerowidth" /><inkscape:path-effect
       effect="powerstroke"
       id="path-effect5686"
       is_visible="true"
       lpeversion="1"
       offset_points="0,4.99214"
       not_jump="false"
       sort_points="true"
       interpolator_type="CubicBezierJohan"
       interpolator_beta="0.2"
       start_linecap_type="zerowidth"
       linejoin_type="extrp_arc"
       miter_limit="4"
       scale_width="1"
       end_linecap_type="zerowidth" /><linearGradient
       inkscape:collect="always"
       xlink:href="#linearGradient6922"
       id="linearGradient1530"
       gradientUnits="userSpaceOnUse"
       gradientTransform="matrix(1.0323189,0,0,1.0323189,-0.55053917,-0.07282386)"
       x1="1.0583333"
       y1="4.2333331"
       x2="24.870832"
       y2="4.2333331" /><linearGradient
       inkscape:collect="always"
       xlink:href="#linearGradient6922"
       id="linearGradient2768"
       gradientUnits="userSpaceOnUse"
       gradientTransform="matrix(1.0323189,0,0,1.0323189,-0.55053917,-0.07282386)"
       x1="1.0583333"
       y1="4.2333331"
       x2="24.870832"
       y2="4.2333331" /><linearGradient
       inkscape:collect="always"
       xlink:href="#linearGradient6922"
       id="linearGradient2770"
       gradientUnits="userSpaceOnUse"
       gradientTransform="matrix(1.0323189,0,0,1.0323189,-0.55053917,-0.07282386)"
       x1="1.0583333"
       y1="4.2333331"
       x2="24.870832"
       y2="4.2333331" /></defs><g
     inkscape:groupmode="layer"
     id="layer2"
     inkscape:label="Layer 2" /><g
     inkscape:groupmode="layer"
     id="layer1"
     inkscape:label="Layer 3"><g
       aria-label="SUMARTIAN STUDIOS"
       transform="matrix(1.1215315,0,0,1.1007825,-1.4698659,-2.2048553)"
       id="text707"
       style="font-size:3.00449px;line-height:1.25;font-family:Norwester;-inkscape-font-specification:Norwester;fill:url(#linearGradient2770);stroke-width:0.238125"
       inkscape:export-filename="../../static/images/title.svg"
       inkscape:export-xdpi="96"
       inkscape:export-ydpi="96"><path
         id="path1593"
         style="fill:url(#linearGradient2768);stroke-width:0.238125"
         d="m 24.132688,2.0029895 c -0.279418,0 -0.432647,0.1502245 -0.432647,0.4326465 v 0.7090596 c 0,0.057085 0.02704,0.093139 0.08112,0.1111662 l 0.712064,0.2343502 v 0.3995971 c 0,0.081121 -0.04206,0.1201796 -0.120179,0.1201796 H 24.22883 c -0.07511,0 -0.120179,-0.039058 -0.120179,-0.1201796 V 3.6584634 c 0,-0.033049 -0.01502,-0.048072 -0.04807,-0.048072 h -0.312467 c -0.03005,0 -0.04807,0.015022 -0.04807,0.048072 v 0.3154715 c 0,0.282422 0.153229,0.4326465 0.432647,0.4326465 h 0.336502 c 0.282422,0 0.432647,-0.1502245 0.432647,-0.4326465 V 3.2798977 c 0,-0.057085 -0.02704,-0.090135 -0.07812,-0.1111661 L 24.108652,2.9343814 V 2.5197617 c 0,-0.078117 0.04507,-0.1201796 0.120179,-0.1201796 h 0.144216 c 0.08112,0 0.120179,0.042063 0.120179,0.1201796 V 2.754112 c 0,0.030045 0.01803,0.048072 0.04807,0.048072 h 0.312467 c 0.03305,0 0.04807,-0.018027 0.04807,-0.048072 V 2.435636 c 0,-0.282422 -0.150225,-0.4326465 -0.432647,-0.4326465 z m -1.934892,1.9709454 c 0,0.282422 0.150225,0.4326465 0.432647,0.4326465 h 0.336502 c 0.282422,0 0.432647,-0.1502245 0.432647,-0.4326465 V 2.435636 c 0,-0.282422 -0.150225,-0.4326465 -0.432647,-0.4326465 h -0.336502 c -0.282422,0 -0.432647,0.1502245 -0.432647,0.4326465 z m 0.519777,0.045067 c -0.07812,0 -0.12018,-0.039058 -0.12018,-0.1201796 v -1.388074 c 0,-0.078117 0.04206,-0.1201796 0.12018,-0.1201796 h 0.17426 c 0.07812,0 0.12018,0.042063 0.12018,0.1201796 v 1.3880743 c 0,0.081121 -0.04206,0.1201796 -0.12018,0.1201796 z M 21.536807,2.0029895 c -0.03305,0 -0.04807,0.018027 -0.04807,0.048072 v 2.3074483 c 0,0.030045 0.01502,0.048072 0.04807,0.048072 h 0.312467 c 0.03004,0 0.04807,-0.018027 0.04807,-0.048072 V 2.0510613 c 0,-0.030045 -0.01803,-0.048072 -0.04807,-0.048072 z M 19.98649,4.3585096 c 0,0.033049 0.01502,0.048072 0.04807,0.048072 h 0.721078 c 0.282422,0 0.432646,-0.1502245 0.432646,-0.4326465 V 2.4386405 c 0,-0.282422 -0.150224,-0.435651 -0.432646,-0.435651 H 20.03456 c -0.03305,0 -0.04807,0.018027 -0.04807,0.048072 z M 20.395101,4.0099887 V 2.3995821 h 0.276413 c 0.07812,0 0.12018,0.042063 0.12018,0.1231841 v 1.3670429 c 0,0.081121 -0.04206,0.1201796 -0.12018,0.1201796 z M 19.349539,2.0029895 c -0.03305,0 -0.06009,0.02704 -0.06009,0.06009 v 1.8267298 c 0,0.081121 -0.04206,0.1201796 -0.12018,0.1201796 h -0.156233 c -0.07812,0 -0.12018,-0.039058 -0.12018,-0.1201796 v -1.82673 c 0,-0.033049 -0.02704,-0.06009 -0.06009,-0.06009 h -0.288431 c -0.03305,0 -0.06009,0.02704 -0.06009,0.06009 v 1.9108556 c 0,0.282422 0.150225,0.4326465 0.432647,0.4326465 h 0.336503 c 0.282422,0 0.432646,-0.1502245 0.432646,-0.4326465 V 2.0630793 c 0,-0.033049 -0.02704,-0.06009 -0.06009,-0.06009 z m -2.259373,0 c -0.03005,0 -0.04807,0.018027 -0.04807,0.048072 v 0.300449 c 0,0.030045 0.01803,0.048072 0.04807,0.048072 h 0.34852 V 4.35851 c 0,0.033049 0.01803,0.048072 0.04807,0.048072 h 0.312467 c 0.03305,0 0.04807,-0.015022 0.04807,-0.048072 V 2.3995821 h 0.348521 c 0.03305,0 0.04807,-0.018027 0.04807,-0.048072 v -0.300449 c 0,-0.030045 -0.01502,-0.048072 -0.04807,-0.048072 z m -0.99749,0 c -0.279417,0 -0.432646,0.1502245 -0.432646,0.4326465 v 0.7090596 c 0,0.057085 0.02704,0.093139 0.08112,0.1111662 l 0.712064,0.2343502 v 0.3995971 c 0,0.081121 -0.04206,0.1201796 -0.12018,0.1201796 H 16.18882 c -0.07511,0 -0.12018,-0.039058 -0.12018,-0.1201796 V 3.6584634 c 0,-0.033049 -0.01502,-0.048072 -0.04807,-0.048072 h -0.312467 c -0.03004,0 -0.04807,0.015022 -0.04807,0.048072 v 0.3154715 c 0,0.282422 0.153229,0.4326465 0.432646,0.4326465 h 0.336503 c 0.282422,0 0.432647,-0.1502245 0.432647,-0.4326465 V 3.2798977 c 0,-0.057085 -0.02704,-0.090135 -0.07812,-0.1111661 L 16.06864,2.9343814 V 2.5197617 c 0,-0.078117 0.04507,-0.1201796 0.12018,-0.1201796 h 0.144215 c 0.08112,0 0.12018,0.042063 0.12018,0.1201796 V 2.754112 c 0,0.030045 0.01803,0.048072 0.04807,0.048072 h 0.312467 c 0.03305,0 0.04807,-0.018027 0.04807,-0.048072 V 2.435636 c 0,-0.282422 -0.150225,-0.4326465 -0.432647,-0.4326465 z m -1.844758,0 c -0.03305,0 -0.04807,0.018027 -0.04807,0.048072 v 1.2678948 h -0.01803 L 13.725137,2.0420479 c -0.009,-0.027041 -0.02704,-0.039058 -0.05408,-0.039058 h -0.297444 c -0.03004,0 -0.04807,0.018027 -0.04807,0.048072 v 2.3074483 c 0,0.030045 0.01803,0.048072 0.04807,0.048072 h 0.312467 c 0.03305,0 0.04807,-0.018027 0.04807,-0.048072 V 3.0846058 h 0.01502 l 0.45969,1.2829172 c 0.009,0.02704 0.02704,0.039058 0.05408,0.039058 h 0.297444 c 0.03004,0 0.04807,-0.018027 0.04807,-0.048072 V 2.0510613 c 0,-0.030045 -0.01803,-0.048072 -0.04807,-0.048072 z m -1.204801,2.4035919 c 0.03605,0 0.04807,-0.018027 0.04206,-0.051076 L 12.586434,2.0450523 c -0.006,-0.030045 -0.02404,-0.042063 -0.05108,-0.042063 H 12.11773 c -0.02704,0 -0.04507,0.012018 -0.05108,0.042063 l -0.498746,2.3104528 c -0.009,0.033049 0.006,0.051076 0.03906,0.051076 h 0.32148 c 0.02704,0 0.04206,-0.015022 0.04807,-0.042063 l 0.08112,-0.4386555 h 0.534799 l 0.08413,0.4386555 c 0.006,0.027041 0.02103,0.042063 0.04807,0.042063 z M 12.517331,3.5773422 h -0.384575 l 0.192288,-1.048567 z M 10.933965,2.0029895 c -0.03305,0 -0.04807,0.018027 -0.04807,0.048072 v 2.3074483 c 0,0.030045 0.01502,0.048072 0.04807,0.048072 h 0.312467 c 0.03004,0 0.04807,-0.018027 0.04807,-0.048072 V 2.0510613 c 0,-0.030045 -0.01803,-0.048072 -0.04807,-0.048072 z m -1.4421519,0 c -0.030045,0 -0.048072,0.018027 -0.048072,0.048072 v 0.300449 c 0,0.030045 0.018027,0.048072 0.048072,0.048072 H 9.8403339 V 4.35851 c 0,0.033049 0.018027,0.048072 0.048072,0.048072 h 0.3124671 c 0.03305,0 0.04807,-0.015022 0.04807,-0.048072 V 2.3995821 h 0.34852 c 0.03305,0 0.04807,-0.018027 0.04807,-0.048072 v -0.300449 c 0,-0.030045 -0.01502,-0.048072 -0.04807,-0.048072 z M 9.2033828,2.435636 c 0,-0.282422 -0.1502244,-0.4326465 -0.4326465,-0.4326465 h -0.754127 c -0.030045,0 -0.048072,0.018027 -0.048072,0.048072 v 2.3074483 c 0,0.030045 0.018027,0.048072 0.048072,0.048072 h 0.312467 c 0.030045,0 0.048072,-0.018027 0.048072,-0.048072 V 3.6013781 h 0.2073098 l 0.2013008,0.7631404 c 0.00601,0.027041 0.021031,0.042063 0.051076,0.042063 H 9.149302 c 0.033049,0 0.051076,-0.018027 0.042063,-0.054081 L 8.9840551,3.5653242 C 9.1282706,3.5022299 9.2033828,3.3700324 9.2033828,3.1687316 Z M 8.3771481,3.2047854 V 2.3995821 h 0.2974445 c 0.078117,0 0.1201796,0.042063 0.1201796,0.1201796 v 0.5648441 c 0,0.078117 -0.042063,0.1201796 -0.1201796,0.1201796 z m -0.721079,1.201796 c 0.036054,0 0.048072,-0.018027 0.042063,-0.051076 L 7.1993866,2.0450523 c -0.00601,-0.030045 -0.024036,-0.042063 -0.051076,-0.042063 H 6.7306862 c -0.02704,0 -0.045067,0.012018 -0.051076,0.042063 L 6.1808646,4.3555051 c -0.00901,0.033049 0.00601,0.051076 0.039058,0.051076 h 0.3214805 c 0.02704,0 0.042063,-0.015022 0.048072,-0.042063 L 6.6705964,3.925863 h 0.5347992 l 0.084126,0.4386555 c 0.00601,0.027041 0.021032,0.042063 0.048072,0.042063 z M 7.1302834,3.5773422 H 6.7457087 L 6.937996,2.5287752 Z M 5.5108647,2.0029895 c -0.036054,0 -0.057085,0.018027 -0.066099,0.054081 L 5.1112675,3.5533063 4.7777691,2.0570703 c -0.00901,-0.036054 -0.030045,-0.054081 -0.066099,-0.054081 H 4.3150777 c -0.039058,0 -0.06009,0.021031 -0.06009,0.06009 v 2.2834123 c 0,0.039058 0.021031,0.06009 0.06009,0.06009 h 0.2764131 c 0.039058,0 0.06009,-0.021031 0.06009,-0.06009 V 2.9944711 h 0.021031 l 0.2974445,1.3580295 c 0.00901,0.036054 0.030045,0.054081 0.066099,0.054081 h 0.14722 c 0.036054,0 0.057085,-0.018027 0.066099,-0.054081 L 5.5469185,2.9944711 H 5.56795 v 1.3520205 c 0,0.039058 0.021031,0.06009 0.06009,0.06009 h 0.2794175 c 0.039058,0 0.06009,-0.021031 0.06009,-0.06009 V 2.0630793 c 0,-0.039058 -0.021031,-0.06009 -0.06009,-0.06009 z m -1.8327377,0 c -0.033049,0 -0.06009,0.02704 -0.06009,0.06009 v 1.8267298 c 0,0.081121 -0.042063,0.1201796 -0.1201796,0.1201796 H 3.3416242 c -0.078117,0 -0.1201796,-0.039058 -0.1201796,-0.1201796 v -1.82673 c 0,-0.033049 -0.02704,-0.06009 -0.06009,-0.06009 h -0.288431 c -0.033049,0 -0.06009,0.02704 -0.06009,0.06009 v 1.9108556 c 0,0.282422 0.1502244,0.4326465 0.4326465,0.4326465 H 3.581983 c 0.282422,0 0.4326465,-0.1502245 0.4326465,-0.4326465 V 2.0630793 c 0,-0.033049 -0.02704,-0.06009 -0.06009,-0.06009 z m -1.9348915,0 c -0.2794175,0 -0.4326465,0.1502245 -0.4326465,0.4326465 v 0.7090596 c 0,0.057085 0.02704,0.093139 0.081121,0.1111662 L 2.1037743,3.490212 v 0.3995971 c 0,0.081121 -0.042063,0.1201796 -0.1201796,0.1201796 H 1.8393792 c -0.075112,0 -0.1201796,-0.039058 -0.1201796,-0.1201796 V 3.6584634 c 0,-0.033049 -0.015022,-0.048072 -0.048072,-0.048072 h -0.312467 c -0.030045,0 -0.048072,0.015022 -0.048072,0.048072 v 0.3154715 c 0,0.282422 0.153229,0.4326465 0.4326465,0.4326465 H 2.079738 c 0.2824221,0 0.4326466,-0.1502245 0.4326466,-0.4326465 V 3.2798977 c 0,-0.057085 -0.02704,-0.090135 -0.078117,-0.1111661 L 1.7191996,2.9343814 V 2.5197617 c 0,-0.078117 0.045067,-0.1201796 0.1201796,-0.1201796 h 0.1442155 c 0.081121,0 0.1201796,0.042063 0.1201796,0.1201796 V 2.754112 c 0,0.030045 0.018027,0.048072 0.048072,0.048072 h 0.3124669 c 0.033049,0 0.048072,-0.018027 0.048072,-0.048072 V 2.435636 c 0,-0.282422 -0.1502245,-0.4326465 -0.4326466,-0.4326465 z" /></g></g></svg>
